<svg width="10" height="8" viewBox="0 0 10 8" fill="none" xmlns="http://www.w3.org/2000/svg">
<path id="Vector" d="M9.8279 0.182998C9.71766 0.0658246 9.56818 0 9.41231 0C9.25644 0 9.10695 0.0658246 8.99672 0.182998L3.53413 5.99133L1.01063 3.30811C0.956404 3.24841 0.891541 3.2008 0.819825 3.16804C0.748109 3.13528 0.670976 3.11804 0.592926 3.11732C0.514876 3.1166 0.437472 3.13241 0.365231 3.16384C0.292991 3.19527 0.22736 3.24168 0.172168 3.30036C0.116976 3.35905 0.0733286 3.42883 0.0437726 3.50565C0.0142166 3.58246 -0.000656039 3.66476 2.21943e-05 3.74775C0.000700428 3.83074 0.0169161 3.91276 0.0477231 3.98901C0.07853 4.06527 0.123311 4.13423 0.179454 4.19189L3.11854 7.317C3.22877 7.43418 3.37826 7.5 3.53413 7.5C3.69 7.5 3.83948 7.43418 3.94972 7.317L9.8279 1.06678C9.93809 0.94957 10 0.790622 10 0.624889C10 0.459155 9.93809 0.300207 9.8279 0.182998Z" fill="white"/>
</svg>
