<svg width="20" height="20" viewBox="0 0 20 20" fill="none" xmlns="http://www.w3.org/2000/svg">
<g id="fi-sr-camera" clip-path="url(#clip0_1_5683)">
<path id="Vector" d="M14.7674 2.5L13.5899 0.973333C13.3553 0.671505 13.0552 0.427014 12.7121 0.258378C12.3691 0.0897429 11.9921 0.00138587 11.6099 0L8.38989 0C8.00764 0.00138587 7.63072 0.0897429 7.28767 0.258378C6.94462 0.427014 6.64445 0.671505 6.40989 0.973333L5.23239 2.5H14.7674Z" fill="#A5ABB7"/>
<path id="Vector_2" d="M10.0001 15.0001C11.8411 15.0001 13.3334 13.5078 13.3334 11.6668C13.3334 9.82588 11.8411 8.3335 10.0001 8.3335C8.15916 8.3335 6.66678 9.82588 6.66678 11.6668C6.66678 13.5078 8.15916 15.0001 10.0001 15.0001Z" fill="#A5ABB7"/>
<path id="Vector_3" d="M15.8333 4.1665H4.16667C3.062 4.16783 2.00296 4.60724 1.22185 5.38835C0.440735 6.16947 0.00132321 7.2285 0 8.33316L0 15.8332C0.00132321 16.9378 0.440735 17.9969 1.22185 18.778C2.00296 19.5591 3.062 19.9985 4.16667 19.9998H15.8333C16.938 19.9985 17.997 19.5591 18.7782 18.778C19.5593 17.9969 19.9987 16.9378 20 15.8332V8.33316C19.9987 7.2285 19.5593 6.16947 18.7782 5.38835C17.997 4.60724 16.938 4.16783 15.8333 4.1665ZM10 16.6665C9.01109 16.6665 8.04439 16.3732 7.22215 15.8238C6.3999 15.2744 5.75904 14.4935 5.3806 13.5799C5.00216 12.6663 4.90315 11.6609 5.09607 10.691C5.289 9.72114 5.7652 8.83023 6.46447 8.13096C7.16373 7.4317 8.05464 6.9555 9.02455 6.76257C9.99445 6.56965 10.9998 6.66866 11.9134 7.0471C12.827 7.42554 13.6079 8.0664 14.1573 8.88865C14.7068 9.71089 15 10.6776 15 11.6665C14.9987 12.9922 14.4715 14.2632 13.5341 15.2006C12.5967 16.138 11.3257 16.6652 10 16.6665Z" fill="#A5ABB7"/>
</g>
<defs>
<clipPath id="clip0_1_5683">
<rect width="20" height="20" fill="white"/>
</clipPath>
</defs>
</svg>
