<svg width="28" height="22" viewBox="0 0 28 22" fill="none" xmlns="http://www.w3.org/2000/svg">
<rect y="7.62939e-05" width="6" height="6" rx="3" fill="#252525"/>
<rect y="8.00008" width="6" height="6" rx="3" fill="#252525"/>
<rect y="16.0001" width="11" height="6" rx="3" fill="#252525"/>
<g clip-path="url(#clip0_1_305)">
<path d="M27.4123 17.8712L23.5413 13.9986C26.4378 10.128 25.648 4.64213 21.7774 1.7457C17.9067 -1.15074 12.4209 -0.360973 9.52445 3.50967C6.62801 7.38032 7.41777 12.8661 11.2884 15.7626C14.3976 18.0892 18.6681 18.0892 21.7774 15.7626L25.6499 19.6352C26.1366 20.1218 26.9256 20.1218 27.4122 19.6352C27.8989 19.1485 27.8989 18.3595 27.4122 17.8729L27.4123 17.8712ZM16.5652 15.0151C13.1251 15.0151 10.3364 12.2265 10.3364 8.78641C10.3364 5.34637 13.1251 2.55769 16.5652 2.55769C20.0052 2.55769 22.7939 5.34637 22.7939 8.78641C22.7902 12.2249 20.0037 15.0115 16.5652 15.0151Z" fill="#252525"/>
</g>
<defs>
<clipPath id="clip0_1_305">
<rect width="20" height="20" fill="white" transform="translate(7.77777)"/>
</clipPath>
</defs>
</svg>
