<svg width="20" height="21" viewBox="0 0 20 21" fill="none" xmlns="http://www.w3.org/2000/svg">
<g clip-path="url(#clip0_1_730)">
<path d="M9.68688 0.806885H9.79945C9.80074 0.993073 9.80041 1.13322 9.79848 1.22733C9.78154 2.02852 9.75364 2.75767 9.71478 3.41476C9.67592 4.07084 9.60309 4.723 9.49627 5.37125C9.35028 6.2573 9.09738 7.14349 8.61602 7.91061C7.83992 9.14735 6.6395 9.84211 5.24406 10.1696C4.51298 10.3413 3.7547 10.4335 3.01796 10.4891C2.38564 10.5369 1.73329 10.5701 1.06091 10.5887C0.70732 10.5984 0.353683 10.6071 0 10.6148V10.3881C0.114641 8.33009 0.785635 6.41172 2.0261 4.77042C3.84834 2.35951 6.66961 0.914758 9.68688 0.806885Z" fill="#252525"/>
<path d="M10.4261 0.806885H10.4808C10.9388 0.845559 11.4109 0.890172 11.8622 0.977327C15.8845 1.7544 19.0226 4.87014 19.8141 8.88686C19.908 9.36384 19.97 9.87056 20 10.407V10.6145C18.8229 10.5873 17.6461 10.5462 16.4747 10.4217C15.3124 10.2979 14.1504 10.0643 13.1378 9.45799C12.7167 9.20578 12.3261 8.8515 12.0005 8.48658C11.0978 7.47484 10.7586 6.05329 10.5996 4.74238C10.5366 4.22277 10.4918 3.70159 10.4653 3.17885C10.4301 2.48244 10.4021 1.78755 10.3982 1.09003C10.3976 0.990586 10.4069 0.896203 10.4261 0.806885Z" fill="#252525"/>
<path d="M9.80774 20.8068H9.60221C9.0395 20.7738 8.46091 20.7106 7.91064 20.5885C6.25746 20.2219 4.68812 19.4597 3.41782 18.3317C1.72459 16.8278 0.585497 14.8726 0.169751 12.6401C0.0871547 12.1967 0.0305709 11.7371 0 11.2615V11.199C1.51561 11.226 3.04627 11.2523 4.5442 11.4973C5.13191 11.5934 5.72693 11.7411 6.28743 11.9647C7.08863 12.2845 7.75815 12.7772 8.296 13.4428C8.92348 14.2193 9.25318 15.1633 9.44185 16.1318C9.63992 17.1484 9.71616 18.2089 9.75663 19.2331C9.77735 19.7575 9.79438 20.2821 9.80774 20.8068Z" fill="#252525"/>
<path d="M20 11.2211V11.2705C19.9576 11.8408 19.8894 12.3605 19.7956 12.8295C19.1416 16.0983 16.7591 18.9124 13.6511 20.1179C12.9425 20.3928 12.2374 20.5832 11.5359 20.689C11.2752 20.7284 10.923 20.7676 10.4791 20.8069H10.4283C10.4106 20.7364 10.4017 20.6579 10.4014 20.5712C10.4006 20.3428 10.4029 20.139 10.408 19.9599C10.4388 18.8856 10.4977 17.8114 10.6471 16.7464C10.745 16.0484 10.8935 15.3727 11.1519 14.724C11.4769 13.9082 11.9784 13.2269 12.6564 12.6799C13.312 12.1511 14.1174 11.8319 14.9308 11.6417C16.1325 11.3609 17.35 11.2832 18.6145 11.2338C19.1225 11.2139 19.5843 11.2097 20 11.2211Z" fill="#252525"/>
</g>
<defs>
<clipPath id="clip0_1_730">
<path d="M0 10.8069C0 5.28404 4.47715 0.806885 10 0.806885V0.806885C15.5228 0.806885 20 5.28404 20 10.8069V20.8069H0V10.8069Z" fill="white"/>
</clipPath>
</defs>
</svg>
