<svg width="24" height="20" viewBox="0 0 24 20" fill="none" xmlns="http://www.w3.org/2000/svg">
<path id="heart" d="M17.0186 0C15.9238 0.016605 14.8529 0.314612 13.9141 0.863927C12.9752 1.41324 12.2016 2.19441 11.6714 3.12855C11.1412 2.19441 10.3676 1.41324 9.42869 0.863927C8.48982 0.314612 7.41892 0.016605 6.32415 0C4.57896 0.0739388 2.9347 0.818405 1.75061 2.07075C0.566514 3.3231 -0.061162 4.98153 0.00470663 6.68372C0.00470663 10.9945 4.65776 15.7025 8.56026 18.8946C9.43159 19.6086 10.5332 20 11.6714 20C12.8095 20 13.9112 19.6086 14.7825 18.8946C18.685 15.7025 23.338 10.9945 23.338 6.68372C23.4039 4.98153 22.7762 3.3231 21.5921 2.07075C20.408 0.818405 18.7638 0.0739388 17.0186 0Z" fill="#252525"/>
</svg>
