<svg width="15" height="15" viewBox="0 0 15 15" fill="none" xmlns="http://www.w3.org/2000/svg">
<g clip-path="url(#clip0_1_4710)">
<path d="M0.625905 2.96921H2.33573C2.6732 4.21086 3.95332 4.94385 5.19497 4.60639C5.99244 4.38964 6.61541 3.76667 6.83215 2.96921H14.3745C14.7197 2.96921 14.9995 2.68942 14.9995 2.34428C14.9995 1.99914 14.7197 1.71935 14.3745 1.71935H6.83215C6.49469 0.477667 5.21457 -0.255327 3.97292 0.0821398C3.17545 0.298886 2.55248 0.921851 2.33573 1.71932H0.625905C0.280763 1.71932 0.000976562 1.99911 0.000976562 2.34425C0.000976562 2.68939 0.280763 2.96921 0.625905 2.96921Z" fill="#363436"/>
<path d="M14.3745 6.87533H12.6647C12.3279 5.63385 11.0485 4.90045 9.80701 5.23721C9.0089 5.45373 8.3854 6.07719 8.16889 6.87533H0.625905C0.280763 6.87533 0.000976562 7.15512 0.000976562 7.50026C0.000976562 7.8454 0.280763 8.12519 0.625905 8.12519H8.16889C8.50569 9.36667 9.7851 10.1001 11.0266 9.76331C11.8247 9.54679 12.4482 8.92333 12.6647 8.12519H14.3745C14.7197 8.12519 14.9995 7.8454 14.9995 7.50026C14.9995 7.15512 14.7197 6.87533 14.3745 6.87533Z" fill="#363436"/>
<path d="M14.3745 12.0308H6.83215C6.49469 10.7892 5.21457 10.0562 3.97291 10.3937C3.17545 10.6104 2.55248 11.2334 2.33573 12.0308H0.625905C0.280763 12.0308 0.000976562 12.3106 0.000976562 12.6558C0.000976562 13.0009 0.280763 13.2807 0.625905 13.2807H2.33573C2.6732 14.5223 3.95332 15.2553 5.19497 14.9179C5.99244 14.7011 6.61541 14.0782 6.83215 13.2807H14.3745C14.7197 13.2807 14.9995 13.0009 14.9995 12.6558C14.9995 12.3106 14.7197 12.0308 14.3745 12.0308Z" fill="#363436"/>
</g>
<defs>
<clipPath id="clip0_1_4710">
<rect width="15" height="15" fill="white"/>
</clipPath>
</defs>
</svg>
