<svg width="23" height="21" viewBox="0 0 23 21" fill="none" xmlns="http://www.w3.org/2000/svg">
<path id="heart" d="M16.4834 0.403503C15.4231 0.420108 14.3859 0.718115 13.4765 1.26743C12.5672 1.81674 11.8179 2.59792 11.3043 3.53205C10.7908 2.59792 10.0415 1.81674 9.13219 1.26743C8.22284 0.718115 7.18562 0.420108 6.12528 0.403503C4.43496 0.477442 2.84241 1.22191 1.69556 2.47426C0.548699 3.7266 -0.0592386 5.38503 0.00455862 7.08723C0.00455862 11.398 4.51129 16.106 8.29107 19.2981C9.13499 20.0121 10.202 20.4035 11.3043 20.4035C12.4067 20.4035 13.4737 20.0121 14.3176 19.2981C18.0974 16.106 22.6041 11.398 22.6041 7.08723C22.6679 5.38503 22.06 3.7266 20.9131 2.47426C19.7663 1.22191 18.1737 0.477442 16.4834 0.403503Z" fill="#A5ABB7"/>
</svg>
