<svg width="14" height="14" viewBox="0 0 14 14" fill="none" xmlns="http://www.w3.org/2000/svg">
<g id="compass 1" clip-path="url(#clip0_1_1081)">
<path id="Vector" d="M8.17387 14H8.11945C7.81758 13.9495 7.63811 13.7672 7.58106 13.4532C7.22322 11.4868 6.86328 9.50791 6.50125 7.51655C6.50045 7.51228 6.49837 7.50835 6.4953 7.50528C6.49222 7.50221 6.4883 7.50013 6.48402 7.49933C4.49413 7.13711 2.50141 6.77472 0.505859 6.41214C0.203073 6.35709 0.0344531 6.1696 0 5.84968V5.79581C0.0304427 5.54698 0.153398 5.37845 0.368867 5.29023C4.54079 3.58306 8.7129 1.87627 12.8852 0.169835C13.1622 0.0563582 13.385 -0.0653215 13.6557 0.0577254C13.8832 0.161085 14.0153 0.39378 13.991 0.644522C13.9846 0.7096 13.9551 0.806397 13.9024 0.934913C12.1954 5.10921 10.4878 9.28323 8.77953 13.457C8.64691 13.781 8.52606 13.9708 8.17387 14Z" fill="#363436"/>
</g>
<defs>
<clipPath id="clip0_1_1081">
<rect width="14" height="14" fill="white"/>
</clipPath>
</defs>
</svg>
