<svg width="16" height="15" viewBox="0 0 16 15" fill="none" xmlns="http://www.w3.org/2000/svg">
<g clip-path="url(#clip0_1_6734)">
<path d="M11.734 2.49977C11.5592 2.32501 11.3365 2.206 11.0941 2.15779C10.8516 2.10958 10.6004 2.13434 10.372 2.22893C10.1436 2.32351 9.9484 2.48369 9.81104 2.6892C9.67369 2.89471 9.60035 3.13633 9.60029 3.38352V4.37477H6.58154C5.09021 4.37642 3.66043 4.96959 2.60589 6.02412C1.55136 7.07865 0.958197 8.50843 0.956543 9.99976L0.956543 14.3748C0.956543 14.5405 1.02239 14.6995 1.1396 14.8167C1.25681 14.9339 1.41578 14.9998 1.58154 14.9998C1.7473 14.9998 1.90627 14.9339 2.02348 14.8167C2.1407 14.6995 2.20654 14.5405 2.20654 14.3748C2.20754 13.3805 2.60294 12.4273 3.30599 11.7242C4.00904 11.0212 4.96229 10.6258 5.95654 10.6248H9.60029V11.616C9.60035 11.8632 9.67369 12.1048 9.81104 12.3103C9.9484 12.5158 10.1436 12.676 10.372 12.7706C10.6004 12.8652 10.8516 12.8899 11.0941 12.8417C11.3365 12.7935 11.5592 12.6745 11.734 12.4998L15.4084 8.82539C15.7599 8.47378 15.9574 7.99695 15.9574 7.49977C15.9574 7.00258 15.7599 6.52576 15.4084 6.17414L11.734 2.49977Z" fill="#A5ABB7"/>
</g>
<defs>
<clipPath id="clip0_1_6734">
<rect width="15" height="15" fill="white" transform="translate(0.956543)"/>
</clipPath>
</defs>
</svg>
