<svg width="14" height="14" viewBox="0 0 14 14" fill="none" xmlns="http://www.w3.org/2000/svg">
<g id="fi-sr-shop" clip-path="url(#clip0_1_6670)">
<path id="Vector" d="M9.33325 7.58301C9.06157 7.94525 8.70929 8.23926 8.30429 8.44175C7.8993 8.64425 7.45272 8.74967 6.99992 8.74967C6.54712 8.74967 6.10054 8.64425 5.69555 8.44175C5.29055 8.23926 4.93826 7.94525 4.66659 7.58301C4.43794 7.89122 4.15021 8.15083 3.82019 8.34668C3.49016 8.54254 3.12445 8.67073 2.74437 8.72378C2.36428 8.77683 1.97745 8.75367 1.60641 8.65566C1.23537 8.55765 0.887555 8.38675 0.583252 8.15292V11.083C0.584178 11.8563 0.891766 12.5976 1.43855 13.1444C1.98533 13.6912 2.72666 13.9987 3.49992 13.9997H10.4999C11.2732 13.9987 12.0145 13.6912 12.5613 13.1444C13.1081 12.5976 13.4157 11.8563 13.4166 11.083V8.15117C13.1124 8.38509 12.7647 8.55611 12.3937 8.65426C12.0227 8.75241 11.6359 8.77572 11.2558 8.72283C10.8758 8.66995 10.51 8.54193 10.1799 8.34623C9.84986 8.15054 9.56203 7.89109 9.33325 7.58301Z" fill="#363436"/>
<path id="Vector_2" d="M12.6583 1.82646C12.5453 1.30676 12.2572 0.841673 11.8422 0.50915C11.4271 0.176627 10.9104 -0.00311919 10.3786 4.09691e-05H9.91659V1.75004C9.91659 1.90475 9.85513 2.05312 9.74573 2.16252C9.63634 2.27192 9.48796 2.33337 9.33325 2.33337C9.17854 2.33337 9.03017 2.27192 8.92077 2.16252C8.81138 2.05312 8.74992 1.90475 8.74992 1.75004V4.09691e-05H5.24992V1.75004C5.24992 1.90475 5.18846 2.05312 5.07906 2.16252C4.96967 2.27192 4.8213 2.33337 4.66659 2.33337C4.51188 2.33337 4.3635 2.27192 4.25411 2.16252C4.14471 2.05312 4.08325 1.90475 4.08325 1.75004V4.09691e-05H3.62125C3.08936 -0.00309065 2.57256 0.176738 2.15751 0.509377C1.74245 0.842015 1.45438 1.30724 1.34159 1.82704L0.596085 5.19171L0.583252 5.84504C0.584018 6.07486 0.630042 6.30227 0.718695 6.51429C0.807349 6.72632 0.936896 6.91881 1.09994 7.08077C1.42922 7.40786 1.87496 7.59076 2.33909 7.58921C2.5689 7.58844 2.79631 7.54242 3.00834 7.45377C3.22036 7.36511 3.41285 7.23556 3.57481 7.07252C3.73677 6.90948 3.86504 6.71613 3.95227 6.50351C4.03951 6.2909 4.08402 6.06319 4.08325 5.83337C4.08325 5.67867 4.14471 5.53029 4.25411 5.4209C4.3635 5.3115 4.51188 5.25004 4.66659 5.25004C4.8213 5.25004 4.96967 5.3115 5.07906 5.4209C5.18846 5.53029 5.24992 5.67867 5.24992 5.83337C5.24992 6.2975 5.43429 6.74262 5.76248 7.07081C6.09067 7.399 6.53579 7.58337 6.99992 7.58337C7.46405 7.58337 7.90917 7.399 8.23736 7.07081C8.56555 6.74262 8.74992 6.2975 8.74992 5.83337C8.74992 5.67867 8.81138 5.53029 8.92077 5.4209C9.03017 5.3115 9.17854 5.25004 9.33325 5.25004C9.48796 5.25004 9.63634 5.3115 9.74573 5.4209C9.85513 5.53029 9.91659 5.67867 9.91659 5.83337C9.91659 6.2975 10.101 6.74262 10.4291 7.07081C10.7573 7.399 11.2025 7.58337 11.6666 7.58337C12.1307 7.58337 12.5758 7.399 12.904 7.07081C13.2322 6.74262 13.4166 6.2975 13.4166 5.83337V5.31246L12.6583 1.82646Z" fill="#363436"/>
</g>
<defs>
<clipPath id="clip0_1_6670">
<rect width="14" height="14" fill="white"/>
</clipPath>
</defs>
</svg>
