<svg width="20" height="20" viewBox="0 0 20 20" fill="none" xmlns="http://www.w3.org/2000/svg">
<path d="M12.8334 11.7667L9.00841 15.5917C8.85228 15.7469 8.64107 15.834 8.42091 15.834C8.20076 15.834 7.98955 15.7469 7.83341 15.5917C7.75531 15.5142 7.69331 15.422 7.651 15.3205C7.6087 15.2189 7.58691 15.11 7.58691 15C7.58691 14.89 7.6087 14.7811 7.651 14.6795C7.69331 14.578 7.75531 14.4858 7.83341 14.4083L11.6667 10.5917C11.7449 10.5142 11.8068 10.422 11.8492 10.3205C11.8915 10.2189 11.9132 10.11 11.9132 9.99999C11.9132 9.88998 11.8915 9.78106 11.8492 9.67951C11.8068 9.57796 11.7449 9.48579 11.6667 9.40832L7.83341 5.59165C7.67649 5.43584 7.5879 5.22407 7.58712 5.00294C7.58633 4.7818 7.67343 4.56941 7.82925 4.41249C7.98506 4.25557 8.19683 4.16697 8.41797 4.16619C8.6391 4.16541 8.85149 4.25251 9.00841 4.40832L12.8334 8.23332C13.3016 8.70207 13.5645 9.33749 13.5645 9.99999C13.5645 10.6625 13.3016 11.2979 12.8334 11.7667V11.7667Z" fill="#A5ABB7"/>
</svg>
