<svg width="20" height="20" viewBox="0 0 20 20" fill="none" xmlns="http://www.w3.org/2000/svg">
<g id="fi-rr-angle-small-right">
<path id="Vector" d="M8.23334 12.8332L4.40834 9.00817C4.25313 8.85203 4.16602 8.64082 4.16602 8.42067C4.16602 8.20051 4.25313 7.9893 4.40834 7.83317C4.48581 7.75506 4.57798 7.69307 4.67953 7.65076C4.78108 7.60845 4.89 7.58667 5.00001 7.58667C5.11002 7.58667 5.21894 7.60845 5.32049 7.65076C5.42204 7.69307 5.51421 7.75506 5.59168 7.83317L9.40834 11.6665C9.48581 11.7446 9.57798 11.8066 9.67953 11.8489C9.78108 11.8912 9.89 11.913 10 11.913C10.11 11.913 10.2189 11.8912 10.3205 11.8489C10.422 11.8066 10.5142 11.7446 10.5917 11.6665L14.4083 7.83317C14.5642 7.67625 14.7759 7.58765 14.9971 7.58687C15.2182 7.58609 15.4306 7.67319 15.5875 7.829C15.7444 7.98482 15.833 8.19659 15.8338 8.41772C15.8346 8.63886 15.7475 8.85125 15.5917 9.00817L11.7667 12.8332C11.2979 13.3013 10.6625 13.5643 10 13.5643C9.33751 13.5643 8.7021 13.3013 8.23334 12.8332Z" fill="#363436"/>
</g>
</svg>
