<svg width="18" height="18" viewBox="0 0 18 18" fill="none" xmlns="http://www.w3.org/2000/svg">
<path d="M8.17513 0.607089C8.57234 0.0275162 9.42766 0.0275179 9.82487 0.60709L12.3257 4.25608C12.4557 4.44581 12.6472 4.58491 12.8678 4.64995L17.111 5.90076C17.7849 6.09943 18.0492 6.9129 17.6208 7.46976L14.9232 10.9758C14.7829 11.1581 14.7098 11.3831 14.7161 11.6131L14.8377 16.0351C14.8571 16.7375 14.1651 17.2402 13.5031 17.0048L9.33505 15.5226C9.11833 15.4456 8.88167 15.4456 8.66495 15.5226L4.49693 17.0048C3.83492 17.2402 3.14295 16.7375 3.16226 16.0351L3.28388 11.6131C3.29021 11.3831 3.21708 11.1581 3.07681 10.9758L0.379216 7.46976C-0.0492465 6.9129 0.215064 6.09943 0.889013 5.90076L5.1322 4.64995C5.35282 4.58491 5.54429 4.44581 5.67432 4.25608L8.17513 0.607089Z" fill="#F5E023"/>
</svg>
