<svg width="20" height="21" viewBox="0 0 20 21" fill="none" xmlns="http://www.w3.org/2000/svg">
<g clip-path="url(#clip0_1_722)">
<path d="M8.70937 15.0831C9.09375 14.719 9.47448 14.3537 9.85156 13.987C9.85571 13.9829 9.86116 13.9805 9.86695 13.9801C9.87274 13.9796 9.8785 13.9813 9.8832 13.9847C10.6762 14.5688 11.4698 15.1535 12.2641 15.739C12.6512 16.0241 13.132 16.0358 13.2535 15.4655C13.8051 12.8746 14.3574 10.284 14.9105 7.69364C15.0277 7.14481 14.8043 6.64716 14.15 6.8995C10.9654 8.12711 7.78099 9.35523 4.59687 10.5839C4.03789 10.7995 3.80351 11.1761 4.56055 11.4132C5.34518 11.6587 6.12982 11.9038 6.91445 12.1483C6.92695 12.1522 6.9388 12.1507 6.95 12.1436C8.8539 10.9442 10.7582 9.74534 12.6629 8.54716C12.7379 8.49989 12.9461 8.41161 13.016 8.48856C13.0625 8.53896 13.0191 8.60263 12.9727 8.64442C11.432 10.0379 9.89075 11.4305 8.34883 12.8222C8.33867 12.8313 8.3332 12.8425 8.33242 12.8558L8.16015 15.3315C8.15703 15.3755 8.17708 15.3933 8.22031 15.3847C8.46445 15.3358 8.54531 15.239 8.70937 15.0831Z" stroke="#81CDF2" stroke-width="2"/>
<path d="M9.74961 0.806885H10.2652C15.6535 0.987354 19.8699 5.2604 20 10.6436V10.9557C19.8758 16.3479 15.6309 20.6686 10.2117 20.8069H9.74453C4.39023 20.6303 0.154688 16.3944 0 11.0377V10.5987C0.0789062 8.12082 0.925781 5.97082 2.54063 4.14868C4.35859 2.09751 6.97266 0.892041 9.74961 0.806885ZM8.70938 15.0831C9.09375 14.719 9.47448 14.3536 9.85156 13.987C9.85571 13.9829 9.86116 13.9804 9.86695 13.98C9.87274 13.9796 9.8785 13.9812 9.8832 13.9846C10.6762 14.5687 11.4698 15.1535 12.2641 15.7389C12.6512 16.0241 13.132 16.0358 13.2535 15.4655C13.8051 12.8746 14.3574 10.284 14.9105 7.6936C15.0277 7.14478 14.8043 6.64712 14.15 6.89946C10.9654 8.12707 7.78099 9.35519 4.59688 10.5838C4.03789 10.7995 3.80352 11.176 4.56055 11.4131C5.34518 11.6587 6.12982 11.9038 6.91445 12.1483C6.92695 12.1522 6.9388 12.1506 6.95 12.1436C8.85391 10.9441 10.7582 9.7453 12.6629 8.54712C12.7379 8.49985 12.9461 8.41157 13.016 8.48853C13.0625 8.53892 13.0191 8.60259 12.9727 8.64438C11.432 10.0379 9.89075 11.4305 8.34883 12.8221C8.33867 12.8312 8.3332 12.8424 8.33242 12.8557L8.16016 15.3315C8.15703 15.3755 8.17708 15.3932 8.22031 15.3846C8.46445 15.3358 8.54531 15.2389 8.70938 15.0831Z" fill="#252525"/>
<path d="M8.70937 15.0831C8.54531 15.239 8.46445 15.3358 8.22031 15.3847C8.17708 15.3933 8.15703 15.3755 8.16015 15.3315L8.33242 12.8558C8.3332 12.8425 8.33867 12.8313 8.34883 12.8222C9.89075 11.4305 11.432 10.0379 12.9727 8.64442C13.0191 8.60263 13.0625 8.53896 13.016 8.48856C12.9461 8.41161 12.7379 8.49989 12.6629 8.54716C10.7582 9.74534 8.8539 10.9442 6.95 12.1436C6.9388 12.1507 6.92695 12.1522 6.91445 12.1483C6.12982 11.9038 5.34518 11.6587 4.56055 11.4132C3.80351 11.1761 4.03789 10.7995 4.59687 10.5839C7.78099 9.35523 10.9654 8.12711 14.15 6.8995C14.8043 6.64716 15.0277 7.14481 14.9105 7.69364C14.3574 10.284 13.8051 12.8746 13.2535 15.4655C13.132 16.0358 12.6512 16.0241 12.2641 15.739C11.4698 15.1535 10.6762 14.5688 9.8832 13.9847C9.8785 13.9813 9.87274 13.9796 9.86695 13.9801C9.86116 13.9805 9.85571 13.9829 9.85156 13.987C9.47448 14.3537 9.09375 14.719 8.70937 15.0831Z" fill="white"/>
</g>
<defs>
<clipPath id="clip0_1_722">
<path d="M0 10.8069C0 5.28404 4.47715 0.806885 10 0.806885V0.806885C15.5228 0.806885 20 5.28404 20 10.8069V20.8069H0V10.8069Z" fill="white"/>
</clipPath>
</defs>
</svg>
