<svg width="15" height="15" viewBox="0 0 15 15" fill="none" xmlns="http://www.w3.org/2000/svg">
<g clip-path="url(#clip0_543_689)">
<path d="M7.45724 0H7.74347C8.14308 0.0166016 8.54133 0.0515625 8.9382 0.104883C9.1259 0.130273 9.25822 0.160645 9.33517 0.195996C9.62814 0.330762 9.84054 0.691406 9.86398 0.996387C9.87414 1.12744 9.88576 1.25859 9.89884 1.38984C9.89932 1.39418 9.90132 1.39821 9.90448 1.40121C9.90765 1.40421 9.91177 1.406 9.91613 1.40625C10.7203 1.45459 11.5239 1.52256 12.3182 1.65703C12.6928 1.72051 12.9915 1.90527 13.2144 2.21133C13.4575 2.54561 13.4657 2.90449 13.5082 3.28887C13.5358 3.53691 13.4616 3.73691 13.2859 3.88887C13.0902 4.05791 12.8839 4.06729 12.6027 4.05381C9.15129 3.89092 5.69992 3.8918 2.24855 4.05645C1.9548 4.07031 1.73283 3.96328 1.58263 3.73535C1.4757 3.57305 1.47658 3.39727 1.50265 3.18574C1.52521 3.00352 1.54045 2.78965 1.58468 2.63115C1.72882 2.1167 2.16359 1.73262 2.69591 1.65234C3.55822 1.52246 4.42521 1.43662 5.29689 1.39482C5.30149 1.39469 5.30587 1.39284 5.30917 1.38964C5.31248 1.38644 5.31447 1.38213 5.31476 1.37754C5.32297 1.2623 5.33224 1.14502 5.34259 1.02568C5.37922 0.60498 5.65607 0.180762 6.10021 0.118945C6.55099 0.0560547 7.00334 0.0164063 7.45724 0Z" fill="#363436"/>
<path d="M7.6312 15.0002H7.30835C6.85337 14.987 6.40777 14.9817 5.95542 14.9196C5.42486 14.847 4.92329 14.8063 4.42408 14.5376C3.69136 14.1433 3.10806 13.4741 2.86724 12.6696C2.8399 12.5782 2.79624 12.3879 2.73628 12.0986C2.49693 10.9408 2.39556 9.84102 2.3314 8.70137C2.2857 7.8834 2.32583 7.05079 2.34693 6.23165C2.35259 6.01915 2.37144 5.86563 2.40347 5.7711C2.53267 5.38936 2.87984 5.12569 3.2771 5.0712C3.47808 5.04366 3.83599 5.02061 4.35083 5.00206C5.81275 4.94952 7.27505 4.93057 8.73775 4.94522C9.45591 4.95245 10.1737 4.97295 10.8911 5.00674C11.3678 5.0294 11.6731 5.0546 11.8069 5.08233C12.1916 5.16202 12.5126 5.43067 12.626 5.80801C12.651 5.89063 12.6654 6.01417 12.6691 6.17862C12.6808 6.69463 12.6914 7.21075 12.7007 7.72696C12.7189 8.73067 12.6418 9.75049 12.5223 10.7466C12.4541 11.3158 12.3503 11.883 12.2326 12.444C11.9967 13.569 11.0463 14.5523 9.92251 14.7928C9.78775 14.8217 9.47105 14.8694 8.97242 14.936C8.69136 14.9735 8.24429 14.9949 7.6312 15.0002ZM6.48745 7.44278C6.39019 7.14102 6.14497 7.00157 5.83736 6.97872C5.58072 6.95997 5.3062 6.96143 5.09644 7.10323C4.90992 7.2296 4.81343 7.41807 4.80699 7.66866C4.78062 8.70655 4.78765 9.82227 4.82808 11.0158C4.84038 11.3715 4.80992 11.7181 5.12691 11.9524C5.21558 12.0179 5.33335 12.0632 5.48023 12.0884C5.86021 12.1534 6.33745 12.0992 6.48716 11.6938C6.51802 11.61 6.53492 11.4732 6.53785 11.2836C6.55542 10.1715 6.55249 9.05928 6.52906 7.94698C6.52554 7.78262 6.53345 7.58545 6.48745 7.44278ZM9.02632 6.99249C8.79781 7.02823 8.60708 7.19258 8.52681 7.39854C8.45825 7.57491 8.46968 7.85264 8.46587 8.06417C8.44556 9.13975 8.44429 10.2154 8.46206 11.2912C8.46499 11.4731 8.48179 11.6049 8.51245 11.6867C8.62876 11.9981 8.89742 12.0969 9.21939 12.1068C9.58326 12.118 9.96031 12.0236 10.1018 11.656C10.1342 11.5718 10.154 11.4407 10.161 11.2628C10.2075 10.0935 10.2181 8.90274 10.1929 7.69063C10.1786 7.0001 9.5689 6.90782 9.02632 6.99249Z" fill="#363436"/>
</g>
<defs>
<clipPath id="clip0_543_689">
<rect width="15" height="15" fill="white"/>
</clipPath>
</defs>
</svg>
