<svg width="20" height="21" viewBox="0 0 20 21" fill="none" xmlns="http://www.w3.org/2000/svg">
<g clip-path="url(#clip0_1_726)">
<path d="M6.5043 8.30138C6.42148 8.08849 6.19336 7.86973 5.95703 7.85919C5.52578 7.84018 4.92018 7.83419 4.14023 7.84122C4.02813 7.842 3.9207 7.83497 3.84063 7.91309C3.70859 8.04278 3.74453 8.22716 3.81797 8.38497C4.56992 9.99942 5.2957 11.5111 6.3957 12.8584C7.47461 14.1795 8.93086 14.8467 10.6418 14.6803C10.9906 14.6463 11.0617 14.4178 11.1066 14.0908C11.1656 13.6631 11.2684 12.565 12.016 13.3127C12.1983 13.495 12.4579 13.7691 12.7949 14.135C13.175 14.5479 13.493 14.7045 14.0551 14.7201C14.5874 14.7352 15.1197 14.7385 15.652 14.7299C16.0496 14.7233 16.4238 14.4076 16.1816 13.9897C15.7348 13.219 14.9996 12.5588 14.3555 11.9108C14.0188 11.5721 14.3895 11.1588 14.6117 10.858C14.9313 10.4249 15.2495 9.99096 15.5664 9.55606C15.8492 9.16856 16.1012 8.77833 16.2172 8.33849C16.3148 7.96856 16.0664 7.85802 15.7484 7.85802C15.063 7.85723 14.3772 7.85437 13.691 7.84942C13.4501 7.8476 13.2904 7.95151 13.2117 8.16114C12.8721 9.06817 12.4133 9.87156 11.8352 10.5713C11.6957 10.7397 11.4547 11.0775 11.2672 10.9572C11.0613 10.8252 11.0582 10.1967 11.0652 9.97911C11.0822 9.45776 11.0941 8.93614 11.1012 8.41427C11.1121 7.61153 10.7129 7.58731 10.0488 7.56739C9.71367 7.55698 9.37839 7.55216 9.04297 7.55294C8.61719 7.55333 8.16719 7.55098 7.9168 7.89278C7.74219 8.13145 8.17188 8.15294 8.28984 8.2295C8.58555 8.42169 8.58164 8.65841 8.6043 9.03458C8.64024 9.63927 8.68047 10.3768 8.48594 10.865C8.35039 11.2045 7.99727 10.8631 7.86602 10.6955C7.29466 9.96453 6.84076 9.16648 6.5043 8.30138Z" stroke="#A0B4F0" stroke-width="2"/>
<path d="M9.73945 0.806885H10.2652C15.6414 0.989307 19.8738 5.25337 20 10.6338V10.9756C19.8562 16.3858 15.5902 20.7084 10.1434 20.8069H9.7543C4.36641 20.6385 0.173047 16.3897 0 11.0292V10.5991C0.163281 5.24985 4.34414 0.978369 9.73945 0.806885ZM6.5043 8.30142C6.42148 8.08853 6.19336 7.86978 5.95703 7.85923C5.52578 7.84022 4.92018 7.83423 4.14023 7.84126C4.02812 7.84204 3.9207 7.83501 3.84062 7.91313C3.70859 8.04282 3.74453 8.2272 3.81797 8.38501C4.56992 9.99946 5.2957 11.5112 6.3957 12.8584C7.47461 14.1795 8.93086 14.8467 10.6418 14.6803C10.9906 14.6463 11.0617 14.4178 11.1066 14.0909C11.1656 13.6631 11.2684 12.5651 12.016 13.3127C12.1983 13.495 12.4579 13.7691 12.7949 14.135C13.175 14.5479 13.493 14.7045 14.0551 14.7202C14.5874 14.7353 15.1197 14.7385 15.652 14.7299C16.0496 14.7233 16.4238 14.4077 16.1816 13.9897C15.7348 13.219 14.9996 12.5588 14.3555 11.9108C14.0188 11.5721 14.3895 11.1588 14.6117 10.8581C14.9312 10.425 15.2495 9.991 15.5664 9.5561C15.8492 9.1686 16.1012 8.77837 16.2172 8.33853C16.3148 7.9686 16.0664 7.85806 15.7484 7.85806C15.063 7.85728 14.3772 7.85441 13.691 7.84946C13.4501 7.84764 13.2904 7.95155 13.2117 8.16118C12.8721 9.06821 12.4133 9.8716 11.8352 10.5713C11.6957 10.7397 11.4547 11.0776 11.2672 10.9573C11.0613 10.8252 11.0582 10.1967 11.0652 9.97915C11.0822 9.4578 11.0941 8.93618 11.1012 8.41431C11.1121 7.61157 10.7129 7.58735 10.0488 7.56743C9.71367 7.55702 9.37839 7.5522 9.04297 7.55298C8.61719 7.55337 8.16719 7.55103 7.9168 7.89282C7.74219 8.13149 8.17188 8.15298 8.28984 8.22954C8.58555 8.42173 8.58164 8.65845 8.6043 9.03462C8.64023 9.63931 8.68047 10.3768 8.48594 10.8651C8.35039 11.2045 7.99727 10.8631 7.86602 10.6956C7.29466 9.96457 6.84076 9.16652 6.5043 8.30142Z" fill="#252525"/>
<path d="M5.95703 7.85919C6.19336 7.86973 6.42148 8.08849 6.5043 8.30138C6.84076 9.16648 7.29466 9.96453 7.86602 10.6955C7.99727 10.8631 8.35039 11.2045 8.48594 10.865C8.68047 10.3768 8.64024 9.63927 8.6043 9.03458C8.58164 8.65841 8.58555 8.42169 8.28984 8.2295C8.17188 8.15294 7.74219 8.13145 7.9168 7.89278C8.16719 7.55098 8.61719 7.55333 9.04297 7.55294C9.37839 7.55216 9.71367 7.55698 10.0488 7.56739C10.7129 7.58731 11.1121 7.61153 11.1012 8.41427C11.0941 8.93614 11.0822 9.45776 11.0652 9.97911C11.0582 10.1967 11.0613 10.8252 11.2672 10.9572C11.4547 11.0775 11.6957 10.7397 11.8352 10.5713C12.4133 9.87156 12.8721 9.06817 13.2117 8.16114C13.2904 7.95151 13.4501 7.8476 13.691 7.84942C14.3772 7.85437 15.063 7.85723 15.7484 7.85802C16.0664 7.85802 16.3148 7.96856 16.2172 8.33849C16.1012 8.77833 15.8492 9.16856 15.5664 9.55606C15.2495 9.99096 14.9313 10.4249 14.6117 10.858C14.3895 11.1588 14.0188 11.5721 14.3555 11.9108C14.9996 12.5588 15.7348 13.219 16.1816 13.9897C16.4238 14.4076 16.0496 14.7233 15.652 14.7299C15.1197 14.7385 14.5874 14.7352 14.0551 14.7201C13.493 14.7045 13.175 14.5479 12.7949 14.135C12.4579 13.7691 12.1983 13.495 12.016 13.3127C11.2684 12.565 11.1656 13.6631 11.1066 14.0908C11.0617 14.4178 10.9906 14.6463 10.6418 14.6803C8.93086 14.8467 7.47461 14.1795 6.3957 12.8584C5.2957 11.5111 4.56992 9.99942 3.81797 8.38497C3.74453 8.22716 3.70859 8.04278 3.84063 7.91309C3.9207 7.83497 4.02813 7.842 4.14023 7.84122C4.92018 7.83419 5.52578 7.84018 5.95703 7.85919Z" fill="white"/>
</g>
<defs>
<clipPath id="clip0_1_726">
<path d="M0 10.8069C0 5.28404 4.47715 0.806885 10 0.806885V0.806885C15.5228 0.806885 20 5.28404 20 10.8069V20.8069H0V10.8069Z" fill="white"/>
</clipPath>
</defs>
</svg>
