<svg width="14" height="13" viewBox="0 0 14 13" fill="none" xmlns="http://www.w3.org/2000/svg">
<g id="wallet (1) 1">
<path id="Vector" d="M7.90913 0.144499C8.72401 -0.237145 9.67827 0.163808 9.94104 1.03389C10.0384 1.3559 10.1328 1.68073 10.2243 2.00837C10.2267 2.01682 10.2235 2.02104 10.2147 2.02104L3.93129 2.02134C3.91057 2.02134 3.90966 2.01692 3.92857 2.00807C5.25261 1.38879 6.57946 0.767599 7.90913 0.144499Z" fill="#363436"/>
<path id="Vector_2" d="M0.0527362 4.06702C0.213841 3.42713 0.802146 2.9942 1.46618 2.99329C4.56136 2.98847 7.65645 2.98635 10.7514 2.98696C10.8984 2.98696 11.1056 2.98183 11.2673 3.00084C11.9193 3.07686 12.4331 3.57617 12.532 4.22029C12.5628 4.42001 12.5532 4.68158 12.551 4.90724C12.551 4.91549 12.5469 4.91961 12.5387 4.91961C11.9548 4.91519 11.3708 4.91549 10.7867 4.92052C10.5228 4.92293 10.3225 4.93661 10.1858 4.96155C9.1971 5.14166 8.41541 5.92878 8.24374 6.92045C8.18672 7.25111 8.20664 7.68917 8.20694 8.0687C8.20694 8.31931 8.21438 8.50123 8.22926 8.61447C8.36412 9.64475 9.15305 10.4771 10.1728 10.6693C10.3126 10.6959 10.5127 10.7092 10.7732 10.7094C11.3566 10.7104 11.9416 10.7105 12.5281 10.7097C12.5344 10.7097 12.5405 10.7122 12.545 10.7167C12.5494 10.7212 12.5519 10.7272 12.5519 10.7336C12.5507 10.9432 12.5634 11.1873 12.5375 11.375C12.4542 11.975 12.0201 12.4759 11.4161 12.6083C11.3181 12.6298 11.178 12.6406 10.9958 12.6406C7.86824 12.641 4.74067 12.6411 1.6131 12.6409C1.39125 12.6409 1.22281 12.6269 1.10776 12.5989C0.577987 12.4701 0.14596 12.0375 0.0331261 11.492C0.0132143 11.3961 0.00305717 11.2448 0.00265491 11.0383C-0.00176995 8.91435 -0.000663716 6.79042 0.00597356 4.66649C0.00677808 4.38712 0.0223656 4.1873 0.0527362 4.06702Z" fill="#363436"/>
<path id="Vector_3" d="M13.9984 8.29301C13.9977 8.67924 13.8436 9.04939 13.57 9.32201C13.2965 9.59464 12.9258 9.74742 12.5396 9.74675L10.6256 9.74341C10.2394 9.74273 9.86924 9.58866 9.59661 9.31508C9.32399 9.0415 9.1712 8.67082 9.17188 8.28459L9.17353 7.33606C9.17421 6.94983 9.32828 6.57969 9.60186 6.30706C9.87545 6.03444 10.2461 5.88165 10.6324 5.88233L12.5463 5.88567C12.9325 5.88634 13.3027 6.04042 13.5753 6.314C13.8479 6.58758 14.0007 6.95826 14 7.34449L13.9984 8.29301ZM11.5841 7.81665C11.5841 7.68919 11.5335 7.56695 11.4434 7.47682C11.3533 7.38669 11.231 7.33605 11.1035 7.33605C11.0404 7.33605 10.9779 7.34848 10.9196 7.37263C10.8613 7.39679 10.8083 7.43219 10.7637 7.47682C10.7191 7.52144 10.6837 7.57442 10.6595 7.63273C10.6354 7.69104 10.6229 7.75354 10.6229 7.81665C10.6229 7.87976 10.6354 7.94226 10.6595 8.00057C10.6837 8.05888 10.7191 8.11186 10.7637 8.15649C10.8083 8.20111 10.8613 8.23651 10.9196 8.26067C10.9779 8.28482 11.0404 8.29725 11.1035 8.29725C11.231 8.29725 11.3533 8.24662 11.4434 8.15649C11.5335 8.06636 11.5841 7.94411 11.5841 7.81665Z" fill="#363436"/>
</g>
</svg>
