<svg width="15" height="15" viewBox="0 0 15 15" fill="none" xmlns="http://www.w3.org/2000/svg">
<g clip-path="url(#clip0_1_1719)">
<path d="M1.53311 0H2.84355C3.03047 0.0365234 3.12432 0.153809 3.1251 0.351855C3.12686 0.85459 3.12773 1.35732 3.12773 1.86006C3.12773 1.86402 3.12613 1.86782 3.12327 1.87062C3.12042 1.87343 3.11654 1.875 3.1125 1.875H1.26738C1.26342 1.875 1.25962 1.87343 1.25682 1.87062C1.25402 1.86782 1.25244 1.86402 1.25244 1.86006C1.25244 1.37373 1.25244 0.885547 1.25244 0.395508C1.25244 0.177832 1.30986 0.0389648 1.53311 0Z" fill="#363436"/>
<path d="M11.2701 2.49756C11.2641 2.49756 11.2584 2.49518 11.2542 2.49095C11.2499 2.48672 11.2476 2.48098 11.2476 2.475V1.1373C11.2476 1.00001 11.3023 0.868336 11.3996 0.771253C11.497 0.67417 11.629 0.619629 11.7667 0.619629H13.8603C13.9979 0.619629 14.13 0.67417 14.2273 0.771253C14.3247 0.868336 14.3794 1.00001 14.3794 1.1373V2.475C14.3794 2.48098 14.377 2.48672 14.3728 2.49095C14.3686 2.49518 14.3628 2.49756 14.3568 2.49756H11.2701Z" fill="#363436"/>
<path d="M2.83922 4.99858C2.83579 4.99838 2.83236 4.99889 2.82913 5.00008C2.8259 5.00127 2.82295 5.00312 2.82045 5.0055C2.81796 5.00789 2.81597 5.01077 2.81461 5.01396C2.81325 5.01715 2.81255 5.02059 2.81256 5.02406C2.81275 6.28246 2.81265 7.54457 2.81226 8.81039C2.81226 8.86664 2.8025 8.9228 2.78297 8.97885C2.30748 10.3455 2.4443 11.8362 3.16353 13.0939C3.16413 13.0951 3.16428 13.0965 3.16394 13.0979C3.1636 13.0992 3.1628 13.1004 3.16168 13.1012C3.16056 13.102 3.15919 13.1024 3.15781 13.1023C3.15644 13.1022 3.15514 13.1016 3.15416 13.1006C2.18306 12.0372 1.65543 10.7899 1.57125 9.35883C1.56383 9.23403 1.56012 9.03871 1.56012 8.77289C1.56012 7.53383 1.56012 6.29486 1.56012 5.056C1.56012 5.05099 1.56132 5.04598 1.56363 5.04135C1.57105 5.02631 1.56969 5.0144 1.55953 5.00561C1.5567 5.00316 1.55306 5.0018 1.54928 5.0018C1.22349 5.00238 0.809822 5.07416 0.664217 4.70678C0.635897 4.63529 0.621932 4.51811 0.622322 4.35522C0.623104 3.97123 0.623104 3.58735 0.622322 3.20356C0.621932 2.99516 0.637166 2.85385 0.668026 2.77963C0.776131 2.52006 1.00435 2.49692 1.28004 2.49721C1.86344 2.49779 2.44683 2.49779 3.03023 2.49721C3.34752 2.49692 3.59127 2.4975 3.71051 2.79106C3.73726 2.85707 3.75054 2.95629 3.75035 3.08871C3.74976 3.52778 3.74976 3.96693 3.75035 4.40619C3.75094 5.03959 3.33053 5.0267 2.83922 4.99858Z" fill="#363436"/>
<path d="M15 3.55464V4.1479C14.9144 5.03091 14.3408 5.6438 13.4551 5.77241C13.4438 5.77397 13.4381 5.78042 13.4381 5.79175C13.442 7.5105 13.4419 8.60415 13.4376 9.07271C13.4083 12.3402 10.8383 14.911 7.58375 15H7.38746C5.0648 14.8966 3.25074 13.1382 3.13238 10.8103C3.02632 8.72642 4.48619 6.82124 6.51617 6.3648C9.29117 5.74048 11.9109 7.84077 11.8743 10.711C11.8744 10.7121 11.8748 10.7131 11.8756 10.7138C11.8763 10.7146 11.8773 10.7152 11.8783 10.7154C11.8794 10.7155 11.8804 10.7154 11.8814 10.7149C11.8824 10.7145 11.8832 10.7137 11.8836 10.7127C12.1101 10.1066 12.1857 9.52564 12.1866 8.88228C12.1879 7.85278 12.1881 6.82192 12.1872 5.7897C12.1872 5.78529 12.1856 5.78103 12.1827 5.77773C12.1798 5.77444 12.1757 5.77233 12.1713 5.77183C11.3918 5.68511 10.7853 5.10942 10.6503 4.34302C10.6154 4.14468 10.6274 3.90562 10.6268 3.68823C10.6256 3.33726 10.7777 3.12778 11.1483 3.12778C12.246 3.12759 13.3437 3.12739 14.4416 3.1272C14.7419 3.1272 14.9455 3.2356 15 3.55464ZM10.6233 10.6246C10.6233 9.7962 10.2942 9.00177 9.70849 8.41603C9.12275 7.83029 8.32832 7.50122 7.49996 7.50122C6.6716 7.50122 5.87716 7.83029 5.29142 8.41603C4.70568 9.00177 4.37662 9.7962 4.37662 10.6246C4.37662 11.4529 4.70568 12.2474 5.29142 12.8331C5.87716 13.4188 6.6716 13.7479 7.49996 13.7479C8.32832 13.7479 9.12275 13.4188 9.70849 12.8331C10.2942 12.2474 10.6233 11.4529 10.6233 10.6246Z" fill="#363436"/>
</g>
<defs>
<clipPath id="clip0_1_1719">
<rect width="15" height="15" fill="white"/>
</clipPath>
</defs>
</svg>
