<svg width="14" height="15" viewBox="0 0 14 15" fill="none" xmlns="http://www.w3.org/2000/svg">
<path d="M11.7285 0.00049072C12.6194 0.00049072 13.4029 0.678011 13.571 1.55084C13.5952 1.67734 13.6079 1.89456 13.609 2.20251C13.6103 2.62432 13.6103 3.04623 13.609 3.46824C13.609 3.4725 13.6073 3.47657 13.6043 3.47958C13.6013 3.48259 13.5972 3.48427 13.5929 3.48427H0.0170145C0.0125895 3.48427 0.00834585 3.48252 0.0052169 3.47939C0.00208796 3.47626 0.000330121 3.47202 0.000330121 3.46759C0.000548219 3.05473 0.000439225 2.64035 3.02916e-06 2.22443C-0.000215069 1.91997 0.011344 1.70274 0.0346805 1.57276C0.169465 0.826209 0.747533 0.215426 1.49343 0.0466184C1.62887 0.0160847 1.83017 0.000708818 2.09734 0.00049072C5.30774 -0.000163573 8.51814 -0.000163573 11.7285 0.00049072ZM3.53417 2.39095C4.04779 2.17045 3.86884 1.39414 3.29601 1.39217C2.92873 1.39108 2.69776 1.39359 2.60311 1.3997C1.90171 1.4455 1.92624 2.43741 2.68326 2.43741C2.93189 2.43741 3.33068 2.4783 3.53417 2.39095ZM6.22266 2.15802C6.40193 1.78573 6.14382 1.39904 5.73325 1.39283C5.37164 1.38737 5.14351 1.38705 5.04886 1.39185C4.47897 1.42129 4.33764 2.20382 4.87907 2.40535C4.93599 2.4265 5.02181 2.43719 5.13653 2.43741C5.48069 2.43839 6.04076 2.5362 6.22266 2.15802Z" fill="#363436"/>
<path d="M1.5484 14.9635C0.799884 14.8189 0.201533 14.2248 0.0441753 13.4815C0.0153864 13.3467 0.000991947 13.1296 0.000991947 12.8302C0.000119556 10.0747 1.0437e-05 7.31645 0.00066473 4.55534C0.00066473 4.54892 0.00321538 4.54276 0.00775542 4.53822C0.0122955 4.53368 0.0184531 4.53113 0.0248736 4.53113H13.5933C13.5978 4.53113 13.6021 4.53292 13.6053 4.53611C13.6085 4.5393 13.6103 4.54363 13.6103 4.54814C13.6099 7.38079 13.6083 10.2158 13.6057 13.0533C13.6047 13.9713 13.0038 14.7535 12.1116 14.9537C11.9766 14.984 11.7787 14.9993 11.5179 14.9995C8.41193 15.0001 5.30611 15.0001 2.2004 14.9995C1.8907 14.9995 1.67337 14.9875 1.5484 14.9635ZM10.8161 9.24466C10.8161 8.18083 10.3935 7.16058 9.6413 6.40835C8.88906 5.65611 7.86881 5.23351 6.80499 5.23351C5.74117 5.23351 4.72092 5.65611 3.96868 6.40835C3.21644 7.16058 2.79384 8.18083 2.79384 9.24466C2.79384 10.3085 3.21644 11.3287 3.96868 12.081C4.72092 12.8332 5.74117 13.2558 6.80499 13.2558C7.86881 13.2558 8.88906 12.8332 9.6413 12.081C10.3935 11.3287 10.8161 10.3085 10.8161 9.24466Z" fill="#363436"/>
<path d="M9.35705 9.08566C9.64723 8.97345 9.93675 9.14324 9.94559 9.4609C9.97307 10.4505 9.56021 11.378 8.80679 12.0041C7.60322 13.0049 5.83401 12.9591 4.68736 11.904C4.01049 11.2815 3.65456 10.4322 3.66274 9.50343C3.66633 9.12394 3.95978 8.96494 4.29904 9.10234C4.58856 9.21914 4.97034 9.40986 5.26445 9.42491C5.69105 9.4465 5.87981 9.20932 6.25864 9.0428C6.93158 8.74739 7.421 9.04935 7.99677 9.4164C8.15184 9.5152 8.2719 9.51553 8.4502 9.44389C8.75183 9.32241 9.05411 9.203 9.35705 9.08566Z" fill="#363436"/>
</svg>
