<svg width="15" height="15" viewBox="0 0 15 15" fill="none" xmlns="http://www.w3.org/2000/svg">
<g clip-path="url(#clip0_1_1697)">
<path d="M4.19092 0H4.41826C4.58701 0.0143555 4.75283 0.028418 4.92275 0.05625C6.79131 0.361523 8.66484 0.668457 10.5434 0.977051C10.5506 0.978223 10.5542 0.982422 10.5542 0.989648V6.51182C10.5542 6.51628 10.5526 6.52058 10.5496 6.52392C10.5467 6.52726 10.5427 6.52941 10.5384 6.52998C8.88506 6.75596 7.23262 6.98145 5.58105 7.20645C5.11201 7.27031 4.67666 7.34941 4.2627 7.34766C2.82715 7.34092 1.57236 6.50859 0.956543 5.22363C0.955766 5.22191 0.95543 5.22001 0.955566 5.21812C0.955702 5.21623 0.956306 5.21441 0.957323 5.21281C0.95834 5.21121 0.959738 5.20989 0.961392 5.20897C0.963046 5.20805 0.964903 5.20755 0.966797 5.20752H2.17529C2.17918 5.20752 2.1829 5.20598 2.18565 5.20323C2.1884 5.20048 2.18994 5.19676 2.18994 5.19287V4.35059C2.18994 4.34476 2.18763 4.33917 2.18351 4.33505C2.17938 4.33093 2.1738 4.32861 2.16797 4.32861H0.944824C0.935059 4.32861 0.930176 4.32373 0.930176 4.31396V3.04629C0.930176 3.03125 0.937695 3.02373 0.952734 3.02373L2.146 3.0249C2.17529 3.0249 2.18994 3.01025 2.18994 2.98096V2.16797C2.18994 2.15332 2.18262 2.146 2.16797 2.146H0.980566C0.977113 2.14598 0.973718 2.1451 0.970697 2.14343C0.967677 2.14175 0.965128 2.13934 0.963287 2.13642C0.961446 2.1335 0.960373 2.13016 0.960167 2.12671C0.959961 2.12326 0.960629 2.11982 0.962109 2.1167C1.56533 0.847852 2.78965 0.0603516 4.19092 0Z" fill="#363436"/>
<path d="M11.4331 6.46377V1.06348C11.4331 1.05975 11.4345 1.05616 11.437 1.0534C11.4394 1.05063 11.4429 1.0489 11.4466 1.04853L14.0534 0.773143C14.0555 0.772938 14.0576 0.773172 14.0596 0.773831C14.0616 0.774489 14.0634 0.775557 14.0649 0.776966C14.0665 0.778374 14.0677 0.780092 14.0686 0.782007C14.0694 0.783922 14.0698 0.785993 14.0698 0.788085V6.73887C14.0698 6.74096 14.0694 6.74303 14.0686 6.74494C14.0677 6.74686 14.0665 6.74858 14.0649 6.74998C14.0634 6.75139 14.0616 6.75246 14.0596 6.75312C14.0576 6.75378 14.0555 6.75401 14.0534 6.75381L11.4466 6.47871C11.4429 6.47834 11.4394 6.47661 11.437 6.47385C11.4345 6.47108 11.4331 6.46749 11.4331 6.46377Z" fill="#363436"/>
<path d="M6.97059 15H6.81004C5.84148 14.9221 5.12635 14.1727 5.1284 13.1985C5.12879 12.9075 5.12791 12.6166 5.12576 12.3258C5.12568 12.3221 5.12417 12.3186 5.12154 12.316C5.11891 12.3135 5.11538 12.312 5.1117 12.312H4.48182C4.47107 12.312 4.46434 12.3068 4.4616 12.2965L3.38055 8.15362C3.38 8.1516 3.37999 8.14948 3.38051 8.14746C3.38104 8.14543 3.38208 8.14357 3.38355 8.14204C3.38501 8.14052 3.38685 8.13938 3.38889 8.13874C3.39093 8.1381 3.3931 8.13798 3.3952 8.13839C3.93045 8.24357 4.42557 8.24503 4.97781 8.17355C5.58348 8.09523 6.18768 8.0131 6.79041 7.92716C6.79215 7.92695 6.79391 7.92711 6.79558 7.92762C6.79725 7.92812 6.79879 7.92898 6.80009 7.93011C6.80139 7.93125 6.80243 7.93265 6.80314 7.93421C6.80384 7.93577 6.8042 7.93746 6.80418 7.93917V12.2974C6.80418 12.3071 6.7993 12.312 6.78953 12.312H6.02195C6.01336 12.312 6.00896 12.3163 6.00877 12.3249C6.00193 12.7952 6.00164 13.11 6.00789 13.2692C6.04598 14.26 7.46805 14.4413 7.74461 13.4763C7.77234 13.3796 7.78611 13.2319 7.78592 13.0333C7.78572 11.9687 7.78553 10.9041 7.78533 9.83966C7.78533 9.58439 7.7991 9.39288 7.82664 9.26515C7.99598 8.47882 8.69764 7.89025 9.5074 7.87296C10.345 7.85509 11.0991 8.43487 11.2778 9.26398C11.3026 9.37843 11.3151 9.54259 11.3153 9.75646C11.3163 10.6037 11.3164 11.4507 11.3156 12.2974C11.3156 12.3013 11.3141 12.305 11.3113 12.3077C11.3086 12.3105 11.3048 12.312 11.301 12.312H10.459C10.4533 12.312 10.4479 12.3098 10.4438 12.3058C10.4398 12.3017 10.4376 12.2963 10.4376 12.2906C10.4372 11.4367 10.4368 10.5814 10.4364 9.72452C10.4364 9.57198 10.4233 9.45402 10.3971 9.37062C10.1388 8.54532 8.95398 8.55089 8.70437 9.38468C8.67762 9.47413 8.66424 9.60587 8.66424 9.77989C8.66463 10.9096 8.66492 12.0393 8.66512 13.169C8.66541 14.1566 7.96023 14.9388 6.97059 15Z" fill="#363436"/>
</g>
<defs>
<clipPath id="clip0_1_1697">
<rect width="15" height="15" fill="white"/>
</clipPath>
</defs>
</svg>
