<svg width="15" height="11" viewBox="0 0 15 11" fill="none" xmlns="http://www.w3.org/2000/svg">
<path d="M15 3.498V3.5563C14.9061 4.02739 14.8326 4.38325 14.7797 4.62388C14.6889 5.03667 14.2784 4.95347 13.9629 4.95347C13.9604 4.95342 13.9579 4.95409 13.9558 4.95541C13.9537 4.95674 13.952 4.95865 13.9509 4.96091C13.9499 4.96318 13.9495 4.9657 13.9499 4.96818C13.9502 4.97066 13.9513 4.97297 13.9529 4.97485C14.8474 6.00991 14.8008 7.62329 13.7871 8.58042C13.7817 8.58551 13.7775 8.59165 13.7745 8.59845C13.7716 8.60525 13.7701 8.61257 13.7701 8.61997C13.7687 9.04106 13.7688 9.46274 13.7704 9.88501C13.7716 10.1973 13.706 10.4578 13.4007 10.5697C13.3165 10.6005 13.15 10.6158 12.9012 10.6154C12.6174 10.615 12.3336 10.6148 12.0498 10.6148C11.8605 10.6148 11.7258 10.6002 11.6455 10.5711C11.1671 10.3974 11.2787 9.85484 11.2705 9.46636C11.2703 9.45581 11.2649 9.45054 11.2544 9.45054H3.74824C3.73574 9.45054 3.72939 9.45679 3.7292 9.46929C3.72275 9.85484 3.82969 10.4015 3.35449 10.5714C3.27246 10.6007 3.11934 10.6154 2.89512 10.6154C2.5959 10.6152 2.29668 10.615 1.99746 10.6148C1.65938 10.6145 1.39219 10.5679 1.27207 10.2395C1.24414 10.1631 1.23018 10.0453 1.23018 9.88589C1.22998 9.45444 1.23018 9.02134 1.23076 8.58657C1.23077 8.58203 1.22984 8.57751 1.22803 8.57328C1.22621 8.56905 1.22356 8.56521 1.22021 8.56196C0.19834 7.59458 0.160547 6.04419 1.01807 4.97017C1.01926 4.96862 1.02001 4.96676 1.02021 4.96481C1.02041 4.96287 1.02007 4.9609 1.01922 4.95914C1.01837 4.95737 1.01704 4.95588 1.01539 4.95483C1.01373 4.95377 1.01182 4.9532 1.00986 4.95317C0.722461 4.95523 0.320801 5.02612 0.227051 4.65317C0.190137 4.5065 0.114453 4.13726 0 3.54546V3.49478C0.0401367 3.23989 0.197168 3.14995 0.442969 3.14468C0.904883 3.13452 1.36514 3.13413 1.82373 3.14351C1.83005 3.14358 1.83623 3.14177 1.84146 3.13832C1.84669 3.13487 1.85072 3.12994 1.85303 3.12417C2.16797 2.33052 2.58633 1.25005 3.36006 0.821729C4.05996 0.434424 4.86826 0.238135 5.64727 0.129444C6.91934 -0.0478999 8.19053 -0.0430171 9.46084 0.144092C10.0495 0.230811 10.5746 0.361963 11.0361 0.537549C11.5134 0.71919 11.9165 0.928956 12.2235 1.33267C12.6328 1.87056 12.9064 2.4978 13.1458 3.12534C13.1473 3.12945 13.1501 3.13299 13.1537 3.13546C13.1573 3.13792 13.1616 3.1392 13.166 3.13911C13.6332 3.13755 14.0919 3.13892 14.5421 3.14321C14.794 3.14585 14.9596 3.23462 15 3.498ZM11.6183 2.49282C11.5301 2.31353 11.3312 1.97691 11.1595 1.8729C10.6922 1.5896 10.1294 1.42114 9.61641 1.32886C8.49551 1.1273 7.34531 1.10064 6.19746 1.21138C5.45244 1.28345 4.63359 1.43755 3.98203 1.78999C3.76963 1.90483 3.6249 2.06216 3.51211 2.26314C3.25957 2.71372 3.04287 3.20327 2.86201 3.73179C2.85908 3.74058 2.86221 3.74497 2.87139 3.74497H12.1283C12.1393 3.74497 12.1429 3.73989 12.1392 3.72974C11.9897 3.30825 11.8161 2.89595 11.6183 2.49282ZM4.37959 6.79595C4.37959 6.49657 4.26066 6.20945 4.04897 5.99776C3.83728 5.78607 3.55016 5.66714 3.25078 5.66714C2.9514 5.66714 2.66429 5.78607 2.45259 5.99776C2.2409 6.20945 2.12197 6.49657 2.12197 6.79595C2.12197 6.94419 2.15117 7.09097 2.2079 7.22792C2.26463 7.36488 2.34777 7.48932 2.45259 7.59414C2.55741 7.69896 2.68185 7.7821 2.8188 7.83883C2.95576 7.89556 3.10254 7.92476 3.25078 7.92476C3.39902 7.92476 3.5458 7.89556 3.68276 7.83883C3.81971 7.7821 3.94415 7.69896 4.04897 7.59414C4.15379 7.48932 4.23694 7.36488 4.29366 7.22792C4.35039 7.09097 4.37959 6.94419 4.37959 6.79595ZM12.8936 6.79595C12.8936 6.49657 12.7746 6.20945 12.5629 5.99776C12.3512 5.78607 12.0641 5.66714 11.7647 5.66714C11.4654 5.66714 11.1783 5.78607 10.9666 5.99776C10.7549 6.20945 10.6359 6.49657 10.6359 6.79595C10.6359 6.94419 10.6651 7.09097 10.7219 7.22792C10.7786 7.36488 10.8617 7.48932 10.9666 7.59414C11.0714 7.69896 11.1958 7.7821 11.3328 7.83883C11.4697 7.89556 11.6165 7.92476 11.7647 7.92476C11.913 7.92476 12.0598 7.89556 12.1967 7.83883C12.3337 7.7821 12.4581 7.69896 12.5629 7.59414C12.6678 7.48932 12.7509 7.36488 12.8076 7.22792C12.8644 7.09097 12.8936 6.94419 12.8936 6.79595Z" fill="#363436"/>
</svg>
