<svg width="15" height="15" viewBox="0 0 15 15" fill="none" xmlns="http://www.w3.org/2000/svg">
<path d="M15 9.06182V9.1128C14.9484 9.29825 14.7756 9.39346 14.6092 9.27921C14.5093 9.21036 14.4023 9.12393 14.3142 9.06944C13.6681 8.67159 12.976 8.54356 12.2379 8.68536C11.1217 8.89981 10.1971 9.80362 9.99316 10.9154C9.96123 11.09 9.94746 11.2488 9.87187 11.3889C9.66475 11.7744 9.35918 11.8143 8.92178 11.8143C7.90713 11.8141 6.89639 11.8139 5.88955 11.8137C5.85248 11.8137 5.81685 11.7993 5.79018 11.7736C5.7635 11.7478 5.74787 11.7127 5.74658 11.6757C5.74307 11.577 5.75303 11.4656 5.74805 11.3719C5.62002 9.08731 3.07734 7.82432 1.20264 9.18399C1.09395 9.2628 0.985254 9.363 0.880664 9.45675C0.477832 9.81768 0.0547852 9.38995 0 8.97686V8.86055C0.0134766 8.79639 0.0216797 8.72989 0.0483398 8.67012C0.366504 7.95968 0.984082 7.30401 1.621 6.90909C1.65479 6.88819 1.68096 6.87325 1.69951 6.86427C1.70189 6.86299 1.70379 6.86097 1.70491 6.85852C1.70602 6.85607 1.70631 6.85331 1.70571 6.85068C1.70511 6.84805 1.70366 6.84569 1.70159 6.84396C1.69952 6.84224 1.69693 6.84124 1.69424 6.84112C1.20264 6.83878 0.668555 6.95069 0.549023 6.30294C0.436816 5.69649 0.770215 5.04932 1.41797 4.97784C1.51035 4.96768 1.63838 4.97618 1.80205 5.00333C2.75625 5.16036 3.79014 5.38565 4.73877 5.15626C4.84951 5.1295 5.06797 5.06622 5.39414 4.96641C6.29707 4.69014 7.45518 4.78038 7.60547 5.95313C7.65293 6.32257 7.50264 6.73946 7.10859 6.83497C7.10252 6.83645 7.09682 6.83922 7.09187 6.84311C7.08692 6.847 7.08284 6.85192 7.07988 6.85753C6.71631 7.55626 6.55049 8.42081 6.56221 9.17725C6.57422 9.93751 7.15371 10.476 7.90986 10.4426C8.58281 10.413 9.31318 10.0377 9.71514 9.49278C10.1538 8.89825 10.2691 8.22735 10.0611 7.48009C9.67481 6.09122 9.28887 4.70225 8.90332 3.31319C8.90039 3.30225 8.89326 3.29649 8.88193 3.29591C8.70713 3.28614 8.55586 3.22266 8.42812 3.10548C8.42031 3.09805 8.41104 3.09522 8.40029 3.09698C8.23389 3.1254 8.05312 3.13419 7.94561 3.00177C7.73379 2.74014 7.9582 2.50694 8.21426 2.43575C8.22402 2.43302 8.23047 2.42677 8.23359 2.417C8.2957 2.21388 8.42978 2.0627 8.63584 1.96348C8.87686 1.84747 9.15039 1.68878 9.45645 1.48741C9.94131 1.16837 10.6099 1.46075 10.899 1.91075C11.1735 2.33819 11.2825 3.317 10.4979 3.29415C10.4959 3.29404 10.4939 3.29459 10.4921 3.29572C10.4904 3.29685 10.4891 3.2985 10.4884 3.30043C10.4877 3.30235 10.4876 3.30446 10.4881 3.30644C10.4887 3.30842 10.4899 3.31017 10.4915 3.31143C11.5588 4.21876 12.7201 5.6086 12.7857 7.06788C12.786 7.07379 12.788 7.07949 12.7914 7.08427C12.7949 7.08906 12.7996 7.09273 12.8051 7.09483C13.735 7.46397 14.4519 8.08057 14.9558 8.94464C14.9769 8.98067 14.9877 9.02227 15 9.06182Z" fill="#363436"/>
<path d="M2.8959 13.6451C4.0921 13.6451 5.06182 12.6754 5.06182 11.4792C5.06182 10.2829 4.0921 9.31323 2.8959 9.31323C1.69969 9.31323 0.72998 10.2829 0.72998 11.4792C0.72998 12.6754 1.69969 13.6451 2.8959 13.6451Z" fill="#363436"/>
<path d="M12.7877 13.6456C13.9839 13.6456 14.9537 12.6758 14.9537 11.4796C14.9537 10.2834 13.9839 9.31372 12.7877 9.31372C11.5915 9.31372 10.6218 10.2834 10.6218 11.4796C10.6218 12.6758 11.5915 13.6456 12.7877 13.6456Z" fill="#363436"/>
</svg>
