<svg width="17" height="15" viewBox="0 0 17 15" fill="none" xmlns="http://www.w3.org/2000/svg">
<path d="M3.64472 3.29573C3.08993 3.56068 2.46524 2.95713 2.75679 2.37199C2.79384 2.29811 2.87715 2.19946 3.00673 2.07602C5.97093 -0.750425 10.6087 -0.671316 13.4914 2.19434C13.8627 2.56363 13.682 3.20878 13.1736 3.33767C12.7856 3.43622 12.5718 3.19957 12.3031 2.94963C11.1451 1.87211 9.49265 1.2822 7.9149 1.36779C6.3916 1.45053 5.07436 2.01032 3.9632 3.04715C3.82203 3.17877 3.71587 3.26163 3.64472 3.29573Z" fill="#363436"/>
<path d="M5.57656 5.22295C4.86867 5.53427 4.27671 4.65759 4.8465 4.09189C6.6551 2.2966 9.58213 2.28807 11.4374 4.00562C11.6826 4.23238 11.8217 4.45198 11.7392 4.77626C11.6345 5.18646 11.1769 5.39617 10.7933 5.22193C10.7315 5.19397 10.65 5.13236 10.5488 5.03711C9.22069 3.78773 7.23137 3.7833 5.88583 4.98699C5.78763 5.07496 5.69352 5.17146 5.57656 5.22295Z" fill="#363436"/>
<path d="M8.38126 8.16668C8.40649 8.17532 8.43047 8.17964 8.4532 8.17964C9.95582 8.17986 11.4583 8.17998 12.9607 8.17998C14.979 8.17998 16.5588 9.94493 16.3508 11.9407C16.1895 13.4874 14.9927 14.7344 13.4596 14.9639C13.3027 14.9873 13.076 14.999 12.7793 14.999C9.75112 14.9999 6.72281 15.0002 3.69439 14.9997C3.38091 14.9995 3.15392 14.9912 3.01344 14.9748C1.53457 14.8023 0.353054 13.6811 0.0649199 12.2357C-0.319032 10.3101 1.0456 8.47561 2.95615 8.21237C3.10755 8.19169 3.33431 8.18111 3.63642 8.18066C5.08448 8.17952 6.53186 8.17941 7.97855 8.18032C7.98217 8.18064 7.98576 8.1795 7.98854 8.17717C7.99133 8.17483 7.99307 8.17149 7.99338 8.16787C7.9937 8.16426 7.99257 8.16066 7.99023 8.15788C7.9879 8.1551 7.98456 8.15336 7.98094 8.15304C7.90524 8.14008 7.82988 8.13531 7.75861 8.11008C7.01083 7.84752 6.62313 7.03938 6.9266 6.29671C7.16189 5.72146 7.77566 5.37672 8.39114 5.46947C9.33704 5.61234 9.84034 6.66054 9.36569 7.49596C9.17576 7.83081 8.79521 8.13019 8.38364 8.14793C8.38134 8.14796 8.37913 8.14882 8.37742 8.15035C8.3757 8.15189 8.3746 8.15399 8.37431 8.15627C8.37402 8.15855 8.37456 8.16086 8.37584 8.16277C8.37711 8.16468 8.37904 8.16607 8.38126 8.16668ZM2.76349 11.4006C2.63937 11.8081 2.9391 12.2626 3.3875 12.2715C3.59107 12.2756 4.10528 12.3155 4.34397 12.2248C4.92706 12.0028 4.90012 11.1694 4.34976 10.9604C4.12437 10.8748 3.77077 10.9069 3.50275 10.9082C3.14983 10.9106 2.87295 11.0412 2.76349 11.4006ZM6.18666 11.3621C6.03185 11.7852 6.33329 12.2633 6.8059 12.2715C7.01969 12.2749 7.51754 12.3155 7.75384 12.2241C8.34034 11.9966 8.31988 11.1466 7.72281 10.9478C7.5114 10.8772 7.16189 10.9075 6.90512 10.9086C6.57164 10.9103 6.30805 11.0303 6.18666 11.3621Z" fill="#363436"/>
</svg>
