<svg width="15" height="15" viewBox="0 0 15 15" fill="none" xmlns="http://www.w3.org/2000/svg">
<path d="M10.9641 0.00039493C11.2718 0.00039493 11.5616 0.245688 11.6611 0.57314C11.6881 0.661619 11.7017 0.810006 11.7019 1.0183C11.7031 2.41369 11.7032 3.80908 11.7023 5.20448C11.7023 5.20971 11.7004 5.21474 11.6971 5.21844C11.6938 5.22215 11.6893 5.22423 11.6847 5.22423H3.31551C3.31066 5.22423 3.30601 5.2221 3.30258 5.21833C3.29915 5.21455 3.29723 5.20942 3.29723 5.20408C3.29793 3.83502 3.29781 2.46346 3.29688 1.0894C3.29688 0.845293 3.31399 0.668071 3.34822 0.557735C3.48572 0.114944 3.80962 0 4.20666 0C6.45902 0.000526662 8.7115 0.000658262 10.9641 0.00039493Z" fill="#363436"/>
<path d="M0.0516963 7.87822C0.252151 6.87256 0.985394 6.09837 1.88603 5.93286C2.01779 5.9089 2.25166 5.89679 2.58763 5.89652C5.94823 5.89573 9.30896 5.89784 12.6698 5.90284C13.5652 5.90416 14.2386 6.31746 14.6902 7.14274C14.943 7.60528 14.9989 8.06585 14.9989 8.66071C14.9996 10.1646 15 11.6683 15 13.172C14.9996 13.8008 14.7324 14.1492 14.1588 14.1563C13.5464 14.1639 12.9339 14.1646 12.3213 14.1583C12.3082 14.1583 12.3015 14.1508 12.3012 14.1358C12.2984 13.7021 12.3364 13.1471 12.2619 12.7904C12.1525 12.2662 11.7811 11.831 11.3148 11.6856C11.2032 11.6511 11.0369 11.6337 10.8158 11.6335C8.61803 11.6329 6.42018 11.6328 4.22221 11.6331C3.97909 11.6331 3.79821 11.6518 3.67958 11.6892C3.22732 11.8314 2.86017 12.25 2.74271 12.7655C2.65585 13.1451 2.70192 13.7052 2.6984 14.1373C2.6984 14.1403 2.69787 14.1433 2.69682 14.1461C2.69578 14.1489 2.69425 14.1514 2.69233 14.1535C2.6904 14.1557 2.68811 14.1574 2.68559 14.1585C2.68308 14.1597 2.68038 14.1603 2.67765 14.1603C2.06715 14.1618 1.45945 14.1617 0.854571 14.1599C0.295055 14.1583 0 13.8099 0 13.2123C0.00023445 11.6823 0.000820549 10.1527 0.00175835 8.62358C0.0019928 8.29284 0.0186388 8.04438 0.0516963 7.87822ZM12.7461 8.58487C12.7461 8.49813 12.7154 8.41494 12.6608 8.35361C12.6062 8.29227 12.5322 8.25781 12.4549 8.25781H11.1713C11.0941 8.25781 11.02 8.29227 10.9654 8.35361C10.9108 8.41494 10.8801 8.49813 10.8801 8.58487V8.60699C10.8801 8.69373 10.9108 8.77692 10.9654 8.83826C11.02 8.89959 11.0941 8.93405 11.1713 8.93405H12.4549C12.5322 8.93405 12.6062 8.89959 12.6608 8.83826C12.7154 8.77692 12.7461 8.69373 12.7461 8.60699V8.58487Z" fill="#363436"/>
<path d="M10.9447 12.3046H4.05536C3.637 12.3046 3.29785 12.6855 3.29785 13.1554V14.1492C3.29785 14.6191 3.637 15 4.05536 15H10.9447C11.363 15 11.7022 14.6191 11.7022 14.1492V13.1554C11.7022 12.6855 11.363 12.3046 10.9447 12.3046Z" fill="#363436"/>
</svg>
