<svg width="15" height="15" viewBox="0 0 15 15" fill="none" xmlns="http://www.w3.org/2000/svg">
<g clip-path="url(#clip0_1_1707)">
<path d="M3.40752 0H3.42188C3.64023 0.0337891 3.74951 0.155762 3.74971 0.365918C3.7499 0.695215 3.75 1.02236 3.75 1.34736C3.75 1.35133 3.75157 1.35513 3.75438 1.35793C3.75718 1.36073 3.76098 1.3623 3.76494 1.3623H5.09736C5.10148 1.3623 5.10543 1.3607 5.10834 1.35784C5.11125 1.35499 5.11289 1.35111 5.11289 1.34707C5.11172 1.06035 5.11172 0.773438 5.11289 0.486328C5.11406 0.217383 5.16768 0.0304687 5.45859 0H5.47236C5.68447 0.0376953 5.79082 0.164648 5.79141 0.380859C5.79219 0.70332 5.79307 1.0209 5.79404 1.33359C5.79424 1.35273 5.80391 1.3623 5.82305 1.3623H7.14082C7.15039 1.3623 7.15518 1.35752 7.15518 1.34795C7.15537 1.0501 7.15752 0.752246 7.16162 0.454395C7.16338 0.331152 7.17861 0.240723 7.20732 0.183105C7.32861 -0.0612305 7.69541 -0.0509766 7.80645 0.205957C7.82676 0.253223 7.83682 0.337109 7.83662 0.457617C7.83584 0.742187 7.83896 1.03477 7.846 1.33535C7.84639 1.35332 7.85557 1.3623 7.87354 1.3623H9.18516C9.19031 1.36231 9.19526 1.36028 9.19893 1.35666C9.20261 1.35304 9.20471 1.34812 9.20479 1.34297C9.2083 1.05879 9.20898 0.775195 9.20684 0.492187C9.20479 0.222363 9.24961 0.0392578 9.53848 0H9.55225C9.84199 0.0386719 9.88623 0.228223 9.88711 0.498047C9.8877 0.781055 9.88789 1.06484 9.8877 1.34941C9.8877 1.3582 9.89209 1.3626 9.90088 1.3626L11.2216 1.3623C11.2407 1.3623 11.2503 1.35273 11.2503 1.33359C11.2495 1.05605 11.2496 0.773828 11.2506 0.486914C11.2515 0.219727 11.2969 0.0386719 11.5822 0H11.6033C11.8193 0.034375 11.9277 0.163965 11.9285 0.38877C11.9297 0.70752 11.9309 1.02734 11.932 1.34824C11.932 1.35879 11.9373 1.36387 11.9479 1.36348C12.2115 1.3541 12.4916 1.36113 12.7321 1.45078C13.1249 1.59727 13.396 1.8665 13.5454 2.2585C13.6371 2.49961 13.6462 2.78408 13.6351 3.04629C13.6349 3.04929 13.6354 3.05227 13.6365 3.05508C13.6376 3.05788 13.6392 3.06044 13.6413 3.0626C13.6435 3.06476 13.646 3.06648 13.6488 3.06766C13.6516 3.06883 13.6546 3.06943 13.6576 3.06943C13.9607 3.06807 14.2654 3.06826 14.5717 3.07002C14.6652 3.07061 14.7338 3.07891 14.7773 3.09492C15.0615 3.20039 15.0656 3.61113 14.7844 3.71953C14.7328 3.73945 14.6455 3.74951 14.5225 3.74971C14.2309 3.7501 13.9409 3.7502 13.6526 3.75C13.6487 3.75 13.6449 3.75157 13.6421 3.75438C13.6393 3.75718 13.6377 3.76098 13.6377 3.76494V5.09736C13.6377 5.10752 13.6427 5.1126 13.6526 5.1126C13.9612 5.11299 14.2698 5.11279 14.5784 5.11201C15.1351 5.11055 15.1034 5.79316 14.6481 5.79316C14.314 5.79336 13.9821 5.79346 13.6526 5.79346C13.6487 5.79346 13.6449 5.79503 13.6421 5.79783C13.6393 5.80064 13.6377 5.80444 13.6377 5.8084V7.1417C13.6377 7.15283 13.6433 7.1585 13.6544 7.15869C13.9501 7.16436 14.2455 7.16582 14.5406 7.16309C14.6639 7.16191 14.7532 7.17451 14.8087 7.20088C15.0437 7.31309 15.0595 7.66143 14.826 7.79033C14.7723 7.82002 14.6822 7.83535 14.5559 7.83633C14.3061 7.83809 14.0562 7.83721 13.8062 7.83369C13.7521 7.83291 13.6997 7.83701 13.6491 7.846C13.646 7.84648 13.6431 7.84811 13.641 7.85058C13.6389 7.85305 13.6377 7.8562 13.6377 7.85947V9.1916C13.6377 9.19564 13.6393 9.19952 13.6422 9.20237C13.645 9.20523 13.6489 9.20684 13.6529 9.20684C13.967 9.20586 14.2814 9.20605 14.5963 9.20742C14.7328 9.20801 14.8301 9.22969 14.9147 9.32754C15.056 9.49072 15.0009 9.75469 14.8049 9.84492C14.743 9.87363 14.6404 9.88799 14.4973 9.88799C14.2176 9.88818 13.9361 9.88799 13.6529 9.8874C13.643 9.8874 13.638 9.89248 13.638 9.90264L13.6374 11.2351C13.6374 11.2371 13.6378 11.2391 13.6386 11.241C13.6393 11.2428 13.6405 11.2445 13.6419 11.2459C13.6433 11.2474 13.645 11.2485 13.6468 11.2492C13.6487 11.25 13.6507 11.2503 13.6526 11.2503C13.9536 11.2493 14.2566 11.2495 14.5617 11.2509C14.6588 11.2515 14.729 11.2594 14.7724 11.2746C15.0604 11.3769 15.0683 11.7932 14.7841 11.9013C14.7329 11.9208 14.6462 11.9307 14.5239 11.9309C14.2423 11.9312 13.9587 11.9313 13.6731 11.9312C13.6681 11.9311 13.6631 11.9322 13.6585 11.9341C13.6539 11.9361 13.6497 11.939 13.6462 11.9426C13.6427 11.9462 13.64 11.9505 13.6382 11.9552C13.6365 11.9598 13.6357 11.9648 13.6359 11.9698C13.6474 12.2253 13.6362 12.501 13.5475 12.7365C13.4006 13.1268 13.1326 13.3962 12.7436 13.5448C12.4995 13.638 12.2147 13.6462 11.9473 13.6356C11.9365 13.6351 11.9312 13.6402 11.9312 13.6512C11.9313 13.9584 11.9311 14.2656 11.9303 14.5729C11.9301 14.6646 11.9219 14.7323 11.9057 14.7759C11.8011 15.056 11.4026 15.0683 11.2852 14.7949C11.2623 14.7416 11.2507 14.6555 11.2503 14.5365C11.2497 14.241 11.2497 13.9461 11.2503 13.6518C11.2503 13.648 11.2488 13.6445 11.2462 13.6418C11.2435 13.6392 11.24 13.6377 11.2362 13.6377H9.90352C9.89355 13.6377 9.88848 13.6427 9.88828 13.6526C9.88574 13.9505 9.8873 14.2482 9.89297 14.5459C9.90381 15.1295 9.20684 15.1333 9.20654 14.6191C9.20654 14.2975 9.20654 13.9776 9.20654 13.6597C9.20654 13.6538 9.20423 13.6483 9.20011 13.6441C9.19599 13.64 9.1904 13.6377 9.18457 13.6377H7.85859C7.84844 13.6377 7.84326 13.6428 7.84307 13.6529C7.8374 13.9625 7.8375 14.2715 7.84336 14.5799C7.84785 14.8094 7.75391 14.944 7.56152 14.9839C7.41211 15.0149 7.26709 14.9458 7.20205 14.811C7.17705 14.7593 7.16279 14.6638 7.15928 14.5245C7.15225 14.2458 7.1541 13.9606 7.16484 13.669C7.165 13.6649 7.16433 13.6609 7.16287 13.657C7.16141 13.6532 7.15919 13.6497 7.15634 13.6467C7.1535 13.6438 7.15009 13.6414 7.14631 13.6398C7.14254 13.6382 7.13848 13.6374 7.13438 13.6374H5.80605C5.80264 13.6374 5.79936 13.6388 5.79694 13.6412C5.79452 13.6436 5.79316 13.6469 5.79316 13.6503C5.79395 13.9646 5.79375 14.2799 5.79258 14.5963C5.79199 14.7322 5.76973 14.8307 5.67217 14.915C5.5084 15.0568 5.24414 14.9997 5.15391 14.8031C5.12578 14.7414 5.11191 14.6402 5.1123 14.4996C5.11289 14.2178 5.11279 13.9353 5.11201 13.6521C5.11182 13.6427 5.10703 13.638 5.09766 13.638L3.77051 13.6374C3.75645 13.6374 3.74941 13.6444 3.74941 13.6585C3.75078 13.9608 3.75059 14.262 3.74883 14.562C3.74824 14.6587 3.74023 14.7287 3.7248 14.7721C3.62256 15.0612 3.2083 15.0677 3.09873 14.7838C3.07881 14.732 3.06885 14.6451 3.06885 14.523C3.06924 14.2334 3.06914 13.943 3.06855 13.6518C3.06855 13.641 3.06318 13.6358 3.05244 13.6362C2.7832 13.6465 2.49668 13.6374 2.25146 13.5431C1.86533 13.3946 1.59932 13.1264 1.45342 12.7383C1.36377 12.4998 1.35322 12.2241 1.36406 11.9646C1.36504 11.9419 1.3542 11.9307 1.33154 11.9309C1.04717 11.9316 0.762207 11.9315 0.47666 11.9306C0.212988 11.9294 0.037793 11.879 0 11.5989V11.5854C0.0363281 11.2975 0.219141 11.2515 0.487793 11.2506C0.776074 11.2496 1.0626 11.2495 1.34736 11.2503C1.3514 11.2503 1.35528 11.2487 1.35814 11.2458C1.36099 11.243 1.3626 11.2391 1.3626 11.2351L1.36201 9.90264C1.36201 9.89287 1.35723 9.88799 1.34766 9.88799C1.01973 9.8874 0.692676 9.88721 0.366504 9.8874C-0.00117187 9.8877 -0.140918 9.40225 0.195703 9.24551C0.253125 9.21875 0.340039 9.20557 0.456445 9.20596C0.748437 9.20693 1.04072 9.20703 1.3333 9.20625C1.34099 9.20625 1.34837 9.20319 1.35381 9.19776C1.35925 9.19232 1.3623 9.18494 1.3623 9.17725V7.85186C1.3623 7.84805 1.36079 7.8444 1.3581 7.8417C1.35541 7.83901 1.35176 7.8375 1.34795 7.8375C1.05303 7.83691 0.755762 7.83887 0.456152 7.84336C0.423145 7.84395 0.375488 7.84023 0.313184 7.83223C-0.018457 7.79004 -0.115723 7.3582 0.180762 7.20674C0.234863 7.1792 0.323242 7.16416 0.445898 7.16162C0.739453 7.15576 1.03926 7.1543 1.34531 7.15723C1.34982 7.15723 1.35414 7.15544 1.35733 7.15225C1.36051 7.14906 1.3623 7.14474 1.3623 7.14023V5.8084C1.3623 5.80451 1.36076 5.80079 1.35801 5.79804C1.35527 5.79529 1.35154 5.79375 1.34766 5.79375C1.05723 5.79297 0.765234 5.79297 0.47168 5.79375C0.346289 5.79414 0.254004 5.78076 0.194824 5.75361C-0.00498047 5.66133 -0.0568359 5.39414 0.0905273 5.23213C0.17959 5.13398 0.280957 5.11406 0.420996 5.11318C0.726465 5.11182 1.03047 5.11172 1.33301 5.11289C1.3407 5.11289 1.34808 5.10984 1.35352 5.1044C1.35896 5.09896 1.36201 5.09158 1.36201 5.08389L1.36289 3.76348C1.36289 3.75469 1.3585 3.75029 1.34971 3.75029C1.0208 3.74971 0.693066 3.74951 0.366504 3.74971C-0.00292967 3.75 -0.139746 3.26543 0.193359 3.10986C0.252539 3.08232 0.345703 3.06865 0.472852 3.06885C0.763477 3.06904 1.05234 3.06904 1.33945 3.06885C1.34266 3.06885 1.34583 3.06821 1.34878 3.06696C1.35174 3.06572 1.35441 3.0639 1.35665 3.06161C1.35889 3.05931 1.36065 3.05659 1.36182 3.05361C1.36299 3.05063 1.36355 3.04744 1.36348 3.04424C1.35498 2.77764 1.36172 2.50254 1.4543 2.25967C1.60215 1.87041 1.8708 1.60186 2.26025 1.454C2.50371 1.36172 2.77383 1.35557 3.04102 1.36318C3.05957 1.36377 3.06885 1.35479 3.06885 1.33623C3.06885 1.02041 3.06885 0.699414 3.06885 0.373242C3.06885 0.153125 3.18174 0.0287109 3.40752 0ZM12.2754 3.0917C12.2754 2.99434 12.2367 2.90097 12.1679 2.83213C12.099 2.76328 12.0057 2.72461 11.9083 2.72461H3.0917C2.99434 2.72461 2.90097 2.76328 2.83213 2.83213C2.76328 2.90097 2.72461 2.99434 2.72461 3.0917V11.9083C2.72461 12.0057 2.76328 12.099 2.83213 12.1679C2.90097 12.2367 2.99434 12.2754 3.0917 12.2754H11.9083C12.0057 12.2754 12.099 12.2367 12.1679 12.1679C12.2367 12.099 12.2754 12.0057 12.2754 11.9083V3.0917Z" fill="#363436"/>
<path d="M11.5731 3.40576H3.42036C3.41243 3.40576 3.40601 3.41219 3.40601 3.42012V11.5734C3.40601 11.5814 3.41243 11.5878 3.42036 11.5878H11.5731C11.581 11.5878 11.5875 11.5814 11.5875 11.5734V3.42012C11.5875 3.41219 11.581 3.40576 11.5731 3.40576Z" fill="#363436"/>
</g>
<defs>
<clipPath id="clip0_1_1707">
<rect width="15" height="15" fill="white"/>
</clipPath>
</defs>
</svg>
