<svg width="15" height="11" viewBox="0 0 15 11" fill="none" xmlns="http://www.w3.org/2000/svg">
<path d="M12.9974 0H2.01005C1.73065 0 1.50415 0.2265 1.50415 0.505902V6.4936C1.50415 6.773 1.73065 6.9995 2.01005 6.9995H12.9974C13.2768 6.9995 13.5033 6.773 13.5033 6.4936V0.505902C13.5033 0.2265 13.2768 0 12.9974 0Z" fill="#363436"/>
<path d="M12.8848 7.5016C13.133 7.50129 13.3329 7.51129 13.4645 7.74846C13.9628 8.64652 14.4597 9.54541 14.9553 10.4451C15.0863 10.6826 14.9088 10.8967 14.6897 10.9704C14.6331 10.9894 14.5426 10.9989 14.4185 10.9989C9.82215 10.9993 5.22581 10.9994 0.629472 10.9992C0.394801 10.9992 0.216689 10.9801 0.0766991 10.8092C-0.0170442 10.6946 -0.0248562 10.5668 0.0532633 10.4258C0.531354 9.56521 1.00851 8.70433 1.48472 7.84314C1.6169 7.60441 1.73846 7.50066 2.00875 7.50098C5.63412 7.50598 9.25948 7.50619 12.8848 7.5016ZM8.99856 9.48271C8.99856 9.35509 8.94786 9.23269 8.85762 9.14244C8.76737 9.0522 8.64497 9.0015 8.51735 9.0015H6.48937C6.36174 9.0015 6.23934 9.0522 6.1491 9.14244C6.05885 9.23269 6.00815 9.35509 6.00815 9.48271V9.51583C6.00815 9.64346 6.05885 9.76586 6.1491 9.8561C6.23934 9.94635 6.36174 9.99705 6.48937 9.99705H8.51735C8.64497 9.99705 8.76737 9.94635 8.85762 9.8561C8.94786 9.76586 8.99856 9.64346 8.99856 9.51583V9.48271Z" fill="#363436"/>
</svg>
