<svg width="10" height="15" viewBox="0 0 10 15" fill="none" xmlns="http://www.w3.org/2000/svg">
<path d="M7.52398 0.00310333C8.49674 0.00439639 9.2561 0.671935 9.27965 1.53731C9.2797 1.53916 9.27933 1.54101 9.27857 1.54273C9.27781 1.54445 9.27667 1.54603 9.27522 1.54735C9.27377 1.54868 9.27203 1.54973 9.27012 1.55045C9.26821 1.55117 9.26615 1.55154 9.26407 1.55154H0.0255805C0.0212566 1.55154 0.0171095 1.55 0.014052 1.54727C0.0109946 1.54455 0.00927734 1.54085 0.00927734 1.53699C0.0205085 0.828395 0.560326 0.218074 1.33093 0.0483602C1.4756 0.0164649 1.70687 0.000409467 2.02472 0.000193958C3.85792 -0.000452569 5.69101 0.000517226 7.52398 0.00310333ZM5.80018 0.768591C5.80018 0.702147 5.7706 0.638424 5.71794 0.59144C5.66529 0.544457 5.59387 0.518062 5.5194 0.518062H3.7688C3.69433 0.518062 3.62292 0.544457 3.57026 0.59144C3.5176 0.638424 3.48802 0.702147 3.48802 0.768591V0.782815C3.48802 0.849259 3.5176 0.912983 3.57026 0.959966C3.62292 1.00695 3.69433 1.03334 3.7688 1.03334H5.5194C5.59387 1.03334 5.66529 1.00695 5.71794 0.959966C5.7706 0.912983 5.80018 0.849259 5.80018 0.782815V0.768591Z" fill="#363436"/>
<path d="M9.26972 2.07202H0.0181855C0.0117826 2.07202 0.0065918 2.07665 0.0065918 2.08237V11.8857C0.0065918 11.8914 0.0117826 11.896 0.0181855 11.896H9.26972C9.27612 11.896 9.28131 11.8914 9.28131 11.8857V2.08237C9.28131 2.07665 9.27612 2.07202 9.26972 2.07202Z" fill="#363436"/>
<path d="M0.0337293 12.4164L9.2628 12.4154C9.27464 12.4154 9.28056 12.4206 9.28056 12.4309C9.28176 12.7542 9.28237 13.0768 9.28237 13.3988C9.28201 14.1348 8.75813 14.7817 7.95275 14.9537C7.81266 14.9836 7.57234 14.9986 7.23178 14.9986C5.415 14.9997 3.59834 15.0001 1.7818 14.9999C0.822081 14.9996 0.0801028 14.3737 0.00873091 13.5181C-0.00431167 13.3629 -0.00274155 13.0005 0.0134409 12.4309C0.0136824 12.4212 0.0204452 12.4164 0.0337293 12.4164ZM5.51016 13.7059C5.51016 13.5007 5.41882 13.3039 5.25623 13.1589C5.09365 13.0138 4.87313 12.9323 4.64319 12.9323C4.41326 12.9323 4.19274 13.0138 4.03015 13.1589C3.86757 13.3039 3.77623 13.5007 3.77623 13.7059C3.77623 13.911 3.86757 14.1078 4.03015 14.2529C4.19274 14.3979 4.41326 14.4794 4.64319 14.4794C4.87313 14.4794 5.09365 14.3979 5.25623 14.2529C5.41882 14.1078 5.51016 13.911 5.51016 13.7059Z" fill="#363436"/>
<path d="M4.64315 13.9617C4.80122 13.9617 4.92936 13.8473 4.92936 13.7063C4.92936 13.5653 4.80122 13.4509 4.64315 13.4509C4.48507 13.4509 4.35693 13.5653 4.35693 13.7063C4.35693 13.8473 4.48507 13.9617 4.64315 13.9617Z" fill="#363436"/>
</svg>
