<svg width="15" height="15" viewBox="0 0 15 15" fill="none" xmlns="http://www.w3.org/2000/svg">
<path d="M15 2.4334V10.1235C14.9344 10.4786 14.7029 10.5835 14.371 10.5835C9.79014 10.5835 5.20928 10.5835 0.628418 10.5835C0.294141 10.5835 0.0577148 10.4748 0 10.113V2.42988C0.0644531 2.05313 0.309961 1.96289 0.658301 1.96289C5.2083 1.96289 9.7584 1.96289 14.3086 1.96289C14.6757 1.96289 14.9335 2.03555 15 2.4334Z" fill="#363436"/>
<path d="M6.32136 12.1286L6.3199 11.4847C6.3199 11.4747 6.32488 11.4697 6.33484 11.4697H8.66511C8.67507 11.4697 8.68006 11.4747 8.68006 11.4847L8.67888 12.1351C8.67884 12.137 8.67919 12.1389 8.67991 12.1408C8.68063 12.1426 8.6817 12.1442 8.68307 12.1456C8.68443 12.147 8.68606 12.1481 8.68786 12.1489C8.68965 12.1496 8.69158 12.15 8.69353 12.15C9.22263 12.1518 9.75076 12.152 10.2779 12.1506C10.4213 12.1502 10.5252 12.1639 10.5896 12.1916C10.9438 12.3439 10.9365 12.8479 10.5864 12.9946C10.519 13.0229 10.4112 13.0371 10.263 13.0371C8.37761 13.0371 6.49226 13.0358 4.60691 13.0333C4.10359 13.0327 3.96443 12.3574 4.43465 12.1805C4.4866 12.1607 4.56492 12.151 4.66961 12.1512C5.21277 12.1518 5.75613 12.1515 6.29968 12.1503C6.30543 12.1503 6.31095 12.148 6.31501 12.1439C6.31908 12.1399 6.32136 12.1344 6.32136 12.1286Z" fill="#363436"/>
</svg>
