<svg width="176" height="22" viewBox="0 0 176 22" fill="none" xmlns="http://www.w3.org/2000/svg">
<path d="M0 11.3354C0 10.0836 0.372558 8.95846 1.11767 7.96C1.86279 6.94664 2.8836 6.15682 4.1801 5.59053C5.4766 5.02424 6.90723 4.7411 8.47197 4.7411C9.9622 4.7411 11.2736 4.97208 12.4062 5.43406C13.5537 5.88113 14.4776 6.51447 15.178 7.3341C15.8784 8.15373 16.3404 9.10003 16.5639 10.173H11.4226C11.2587 9.50239 10.916 8.96591 10.3944 8.56354C9.87279 8.16118 9.23944 7.96 8.49433 7.96C7.52567 7.96 6.73585 8.27295 6.12486 8.89885C5.51386 9.50984 5.20836 10.322 5.20836 11.3354C5.20836 12.3189 5.50641 13.1311 6.1025 13.7719C6.69859 14.3978 7.48097 14.7108 8.44962 14.7108C9.20964 14.7108 9.85044 14.5096 10.372 14.1072C10.8936 13.7048 11.2364 13.1758 11.4003 12.5201H16.5416C16.3777 13.5335 15.9306 14.45 15.2004 15.2696C14.4702 16.0892 13.5164 16.7375 12.3391 17.2143C11.1767 17.6912 9.88769 17.9297 8.47197 17.9297C6.92213 17.9297 5.49896 17.6465 4.20246 17.0802C2.90595 16.499 1.87769 15.7092 1.11767 14.7108C0.372558 13.6974 0 12.5723 0 11.3354Z" fill="#363436"/>
<path d="M34.2382 11.5366C34.2084 12.5946 33.9402 13.6005 33.4335 14.5543C32.9417 15.508 32.2487 16.2829 31.3546 16.879C30.4605 17.4602 29.4471 17.7508 28.3145 17.7508C25.7364 17.7508 23.814 17.1696 22.5473 16.0073V21.5956H17.406V5.16581H22.1226L22.4132 6.73056C23.665 5.44896 25.6321 4.83796 28.3145 4.89757C29.462 4.89757 30.4754 5.18072 31.3546 5.747C32.2487 6.31329 32.9492 7.08821 33.4558 8.07177C33.9625 9.05532 34.2233 10.1581 34.2382 11.3801V11.4471V11.5366ZM25.7439 14.7108C26.787 14.7108 27.5918 14.3904 28.1581 13.7496C28.7392 13.0939 29.0447 12.3189 29.0746 11.4248C29.0447 10.3965 28.7467 9.55455 28.1804 8.89885C27.629 8.22824 26.8169 7.89294 25.7439 7.89294C25.1329 7.89294 24.5815 8.04942 24.0897 8.36236C23.6129 8.66041 23.2328 9.07022 22.9497 9.5918C22.6815 10.0985 22.5473 10.6424 22.5473 11.2236V11.2683C22.5473 12.3115 22.8379 13.146 23.4191 13.7719C24.0152 14.3978 24.7901 14.7108 25.7439 14.7108Z" fill="#363436"/>
<path d="M43.3114 4.62933C45.4425 4.62933 47.3574 4.98699 49.0563 5.7023C50.7552 6.41761 51.6046 7.67686 51.6046 9.48004V17.3485H46.7315L46.3515 15.7614V15.6496C45.979 16.3202 45.1891 16.812 43.9821 17.1249C42.7899 17.4379 41.4859 17.5944 40.0702 17.5944C38.9376 17.5944 37.805 17.3485 36.6725 16.8567C35.5399 16.35 34.9736 15.2994 34.9736 13.7048C34.9736 11.1864 36.6203 9.92711 39.9137 9.92711C42.0298 9.92711 43.5052 9.91221 44.3397 9.8824C45.1742 9.83769 45.7256 9.76318 45.9939 9.65886C46.2621 9.53965 46.4037 9.33101 46.4186 9.03297V8.74237C46.4037 8.2506 46.0758 7.89294 45.435 7.6694C44.8091 7.43097 44.0938 7.31175 43.2891 7.31175C42.4546 7.32665 41.7393 7.48313 41.1432 7.78117C40.562 8.07922 40.2714 8.53374 40.2714 9.14473H35.1077C35.1077 8.01216 35.5548 7.11057 36.4489 6.43996C37.3431 5.75446 38.4086 5.28503 39.6455 5.03169C40.8973 4.76345 42.1193 4.62933 43.3114 4.62933ZM42.9761 14.3307C44.0789 14.3307 44.9135 14.0849 45.4797 13.5931C46.046 13.1013 46.3515 12.4754 46.3962 11.7154V11.4024C45.8299 11.6409 44.9284 11.7601 43.6915 11.7601C42.4099 11.7601 41.5083 11.8495 40.9867 12.0283C40.48 12.2072 40.2192 12.535 40.2043 13.0119C40.249 13.459 40.48 13.7943 40.8973 14.0178C41.3294 14.2264 42.0224 14.3307 42.9761 14.3307Z" fill="#363436"/>
<path d="M57.7771 13.0119C57.7622 13.1013 57.7548 13.2354 57.7548 13.4143L57.7771 13.0119ZM67.0985 10.9777C68.0672 11.1715 68.7899 11.4993 69.2668 11.9613C69.7586 12.4083 70.0045 13.0566 70.0045 13.906V13.9507C70.0045 15.1429 69.468 16.0073 68.395 16.5437C67.337 17.0653 65.735 17.341 63.589 17.3708H63.5443H62.9855H52.7699V5.16581H64.2373V5.18817H64.282C65.7871 5.18817 66.9421 5.44151 67.7468 5.94819C68.5664 6.45487 68.9762 7.19253 68.9762 8.16118V8.22824C68.9762 8.94355 68.8198 9.52474 68.5068 9.97181C68.2088 10.4189 67.7393 10.7542 67.0985 10.9777ZM61.7561 9.99417C62.3074 9.99417 62.7247 9.97926 63.0078 9.94946C63.291 9.91966 63.5294 9.82279 63.7232 9.65886C63.9169 9.49494 64.0137 9.2267 64.0137 8.85414C64.0137 8.51139 63.9169 8.2655 63.7232 8.11647C63.5443 7.95255 63.3059 7.85568 63.0078 7.82588C62.7247 7.78117 62.3074 7.75882 61.7561 7.75882H57.7771V9.97181C59.5654 9.97181 60.6533 9.97926 61.0407 9.99417C61.4431 9.99417 61.6592 9.99417 61.689 9.99417H61.7561ZM62.2702 14.5319C62.9259 14.5319 63.4251 14.517 63.7679 14.4872C64.1255 14.4425 64.4161 14.3382 64.6396 14.1743C64.8632 14.0103 64.9749 13.7421 64.9749 13.3695C64.9749 12.997 64.8632 12.7287 64.6396 12.5648C64.4161 12.4009 64.1255 12.304 63.7679 12.2742C63.4251 12.2295 62.9259 12.2072 62.2702 12.2072H62.2478H57.7771V14.5319H62.2702Z" fill="#363436"/>
<path d="M82.0221 9.56945V5.16581H87.1411V17.3485H82.0221V12.8107H75.7855V17.3485H70.823V5.16581H75.7855V9.56945H82.0221Z" fill="#363436"/>
<path d="M93.3152 12.1848L99.82 5.16581H104.961V17.3485H99.82V10.3071L93.3152 17.3485H88.3303V5.16581H93.3152V12.1848Z" fill="#363436"/>
<path d="M122.975 11.5366C122.946 12.5946 122.677 13.6005 122.171 14.5543C121.679 15.508 120.986 16.2829 120.092 16.879C119.198 17.4602 118.184 17.7508 117.052 17.7508C114.474 17.7508 112.551 17.1696 111.285 16.0073V21.5956H106.143V5.16581H110.86L111.15 6.73056C112.402 5.44896 114.369 4.83796 117.052 4.89757C118.199 4.89757 119.213 5.18072 120.092 5.747C120.986 6.31329 121.686 7.08821 122.193 8.07177C122.7 9.05532 122.961 10.1581 122.975 11.3801V11.4471V11.5366ZM114.481 14.7108C115.524 14.7108 116.329 14.3904 116.895 13.7496C117.476 13.0939 117.782 12.3189 117.812 11.4248C117.782 10.3965 117.484 9.55455 116.918 8.89885C116.366 8.22824 115.554 7.89294 114.481 7.89294C113.87 7.89294 113.319 8.04942 112.827 8.36236C112.35 8.66041 111.97 9.07022 111.687 9.5918C111.419 10.0985 111.285 10.6424 111.285 11.2236V11.2683C111.285 12.3115 111.575 13.146 112.156 13.7719C112.752 14.3978 113.527 14.7108 114.481 14.7108Z" fill="#363436"/>
<path d="M129.031 7.2894C130.223 5.97799 132.108 5.18817 134.686 4.91992V8.80943H131.713C130.789 8.80943 130.119 9.15964 129.702 9.86005C129.284 10.5456 129.076 11.4471 129.076 12.5648V17.3485H123.934V5.16581H128.606L129.031 7.2894Z" fill="#363436"/>
<path d="M140.885 0.806885H135.744V4.18226H140.885V0.806885ZM140.885 17.3485H135.744V4.83051H140.885V17.3485Z" fill="#363436"/>
<path d="M141.739 11.3354C141.739 10.0836 142.112 8.95846 142.857 7.96C143.602 6.94664 144.623 6.15682 145.92 5.59053C147.216 5.02424 148.647 4.7411 150.211 4.7411C151.702 4.7411 153.013 4.97208 154.146 5.43406C155.293 5.88113 156.217 6.51447 156.917 7.3341C157.618 8.15373 158.08 9.10003 158.303 10.173H153.162C152.998 9.50239 152.655 8.96591 152.134 8.56354C151.612 8.16118 150.979 7.96 150.234 7.96C149.265 7.96 148.475 8.27295 147.864 8.89885C147.253 9.50984 146.948 10.322 146.948 11.3354C146.948 12.3189 147.246 13.1311 147.842 13.7719C148.438 14.3978 149.22 14.7108 150.189 14.7108C150.949 14.7108 151.59 14.5096 152.111 14.1072C152.633 13.7048 152.976 13.1758 153.14 12.5201H158.281C158.117 13.5335 157.67 14.45 156.94 15.2696C156.21 16.0892 155.256 16.7375 154.079 17.2143C152.916 17.6912 151.627 17.9297 150.211 17.9297C148.662 17.9297 147.238 17.6465 145.942 17.0802C144.645 16.499 143.617 15.7092 142.857 14.7108C142.112 13.6974 141.739 12.5723 141.739 11.3354Z" fill="#363436"/>
<path d="M175.955 11.7601H164.041C164.145 12.6989 164.495 13.4739 165.092 14.0849C165.703 14.6809 166.53 14.979 167.573 14.979C168.422 14.979 169.175 14.7778 169.83 14.3755C170.501 13.9582 170.836 13.3248 170.836 12.4754H175.955C175.955 14.2041 175.21 15.5229 173.72 16.432C172.245 17.341 170.188 17.7955 167.55 17.7955C165.926 17.7955 164.451 17.5198 163.124 16.9685C161.798 16.4171 160.747 15.6421 159.973 14.6437C159.198 13.6303 158.81 12.4754 158.81 11.1789C158.81 9.8675 159.19 8.71257 159.95 7.71411C160.725 6.70075 161.776 5.92583 163.102 5.38935C164.443 4.83796 165.926 4.56227 167.55 4.56227C169.219 4.56227 170.68 4.83051 171.932 5.367C173.198 5.90348 174.182 6.6635 174.882 7.64705C175.583 8.6157 175.94 9.75573 175.955 11.0671V11.1789V11.7601ZM167.55 7.2894C166.567 7.2894 165.814 7.49803 165.293 7.91529C164.771 8.33256 164.413 8.91375 164.22 9.65886H170.702C170.538 8.91375 170.21 8.33256 169.719 7.91529C169.227 7.49803 168.504 7.2894 167.55 7.2894Z" fill="#363436"/>
</svg>
